<svg width="40" height="41" viewBox="0 0 40 41" fill="none" xmlns="http://www.w3.org/2000/svg">
<g clip-path="url(#clip0_468_597)">
<path d="M18.4315 14.9119C18.4953 14.9116 18.5591 14.9113 18.6248 14.9109C18.8393 14.9099 19.0537 14.9094 19.2682 14.9089C19.4217 14.9083 19.5751 14.9076 19.7286 14.907C20.2334 14.9049 20.7382 14.9037 21.243 14.9026C21.4167 14.9022 21.5905 14.9018 21.7643 14.9013C22.4874 14.8997 23.2105 14.8982 23.9335 14.8973C24.9695 14.896 26.0055 14.8935 27.0414 14.889C27.7699 14.886 28.4984 14.8845 29.227 14.884C29.662 14.8838 30.097 14.8828 30.532 14.8803C30.9416 14.8779 31.3511 14.8774 31.7607 14.8784C31.9107 14.8784 32.0606 14.8777 32.2106 14.8764C33.7264 14.8632 33.7264 14.8632 34.2968 15.3146C34.7691 15.8123 34.9446 16.2841 34.9365 16.9747C34.936 17.0702 34.9355 17.1657 34.935 17.2641C34.9218 17.5021 34.9218 17.5021 34.8437 17.6583C34.894 17.6414 34.9442 17.6245 34.996 17.6071C35.972 17.3063 37.0125 17.3209 37.9498 17.7591C39.0135 18.3674 39.6737 19.2064 40 20.3927C40.0579 20.7984 40.0564 21.2062 40.0509 21.6152C40.0488 21.7988 40.0509 21.9821 40.0534 22.1658C40.0559 23.281 39.7592 24.256 38.9874 25.0894C38.1321 25.9076 37.148 26.2156 35.9875 26.1993C35.3507 26.1426 34.7821 25.9197 34.2187 25.6271C34.2199 25.6831 34.2211 25.7392 34.2223 25.7969C34.2305 26.5138 34.1879 27.2219 34.1315 27.9362C34.1162 28.1319 34.1022 28.3276 34.0883 28.5234C34.018 29.4586 33.9146 30.275 33.4375 31.0958C33.5129 31.0963 33.5884 31.0968 33.6662 31.0972C34.3777 31.1017 35.0893 31.1074 35.8008 31.1143C36.1666 31.1178 36.5324 31.1208 36.8982 31.1229C37.2513 31.1249 37.6044 31.1281 37.9574 31.132C38.0921 31.1333 38.2267 31.1342 38.3614 31.1347C38.5501 31.1355 38.7388 31.1377 38.9275 31.1402C38.9831 31.1401 39.0386 31.14 39.0959 31.1399C39.4351 31.1463 39.6516 31.2007 39.9218 31.4083C40.0849 31.7344 40.0372 32.0698 39.9327 32.4063C39.8387 32.6493 39.738 32.8882 39.6338 33.1271C39.5828 33.2492 39.5828 33.2492 39.5308 33.3737C39.2685 33.989 39.0003 34.577 38.4912 35.0265C38.4367 35.0762 38.3822 35.1258 38.3261 35.177C37.8707 35.4886 37.4219 35.5839 36.8784 35.5787C36.789 35.5792 36.789 35.5792 36.6978 35.5798C36.4988 35.5807 36.2998 35.58 36.1008 35.5793C35.9564 35.5796 35.812 35.58 35.6676 35.5805C35.2713 35.5817 34.875 35.5813 34.4787 35.5808C34.0511 35.5804 33.6236 35.5814 33.196 35.5822C32.3585 35.5835 31.521 35.5836 30.6836 35.5832C30.0029 35.5828 29.3223 35.583 28.6417 35.5834C28.5448 35.5834 28.448 35.5835 28.3482 35.5836C28.1514 35.5837 27.9547 35.5838 27.758 35.5839C25.9653 35.585 24.1727 35.5846 22.3801 35.5837C20.7442 35.583 19.1082 35.5836 17.4723 35.5854C15.6338 35.5875 13.7953 35.5885 11.9569 35.5879C10.9836 35.5876 10.0103 35.5878 9.03707 35.5892C8.20859 35.5903 7.38012 35.5904 6.55164 35.589C6.12893 35.5883 5.70623 35.5882 5.28351 35.5894C4.89649 35.5905 4.5095 35.5901 4.12248 35.5886C3.98254 35.5883 3.84259 35.5885 3.70265 35.5893C2.85739 35.5939 2.12661 35.5753 1.46481 34.9826C1.41768 34.9419 1.37055 34.9012 1.32199 34.8593C0.875114 34.3543 0.623565 33.7433 0.366182 33.1271C0.330682 33.0457 0.295182 32.9644 0.258607 32.8805C0.0653643 32.4202 -0.0551394 32.0646 -2.94147e-05 31.5646C0.136106 31.3118 0.193085 31.2658 0.468721 31.174C0.584442 31.1677 0.700425 31.1656 0.816316 31.1663C0.882531 31.1666 0.948747 31.1668 1.01697 31.1671C1.0858 31.1678 1.15464 31.1684 1.22556 31.1691C1.33017 31.1696 1.33017 31.1696 1.43689 31.1702C1.60896 31.1711 1.78103 31.1724 1.9531 31.174C1.96357 31.1154 1.97404 31.0567 1.98483 30.9964C2.19088 30.0502 3.01792 29.319 3.6514 28.6355C3.82266 28.4456 3.98297 28.2502 4.1406 28.049C4.11643 27.9894 4.09226 27.9297 4.06735 27.8683C3.87238 27.3751 3.82533 26.9124 3.97946 26.3986C5.01323 24.9576 7.1855 24.0934 8.87814 23.7814C8.93897 23.7717 8.9998 23.7621 9.06247 23.7521C9.0802 23.6699 9.09792 23.5877 9.11618 23.5031C9.24041 23.0781 9.49802 22.8806 9.87302 22.6583C11.9886 21.678 14.4738 21.5337 16.7187 22.1115C16.7138 22.0514 16.7089 21.9913 16.7039 21.9293C16.6576 21.3605 16.6116 20.7916 16.5659 20.2227C16.5424 19.9303 16.5188 19.6379 16.495 19.3455C16.4719 19.0628 16.4492 18.7802 16.4266 18.4975C16.418 18.3901 16.4093 18.2828 16.4004 18.1754C16.2387 16.2049 16.2387 16.2049 16.8213 15.4806C17.3359 15.0737 17.7762 14.9124 18.4315 14.9119ZM17.7779 16.3165C17.4032 16.8399 17.6039 17.6656 17.6532 18.2669C17.6619 18.3787 17.6706 18.4905 17.6792 18.6024C17.6974 18.8358 17.7159 19.0691 17.7348 19.3025C17.7589 19.6007 17.7823 19.8989 17.8055 20.1972C17.8277 20.4831 17.8503 20.769 17.8729 21.055C17.8792 21.136 17.8792 21.136 17.8857 21.2187C17.8979 21.3725 17.9103 21.5263 17.9228 21.6801C17.9333 21.8111 17.9333 21.8111 17.944 21.9446C17.9593 22.4078 17.9593 22.4078 18.183 22.7758C18.2654 22.8168 18.2654 22.8168 18.3496 22.8585C18.63 23.015 18.7743 23.137 18.9062 23.4396C18.9135 23.4924 18.9208 23.5453 18.9283 23.5997C18.9699 23.7667 18.9699 23.7667 19.1371 23.8279C19.2035 23.8452 19.2699 23.8624 19.3383 23.8803C19.4124 23.9007 19.4864 23.9211 19.5627 23.9422C19.6425 23.9632 19.7224 23.9843 19.8047 24.006C21.121 24.3807 22.352 24.9299 23.4192 25.8041C23.5775 25.9556 23.5775 25.9556 23.75 25.9396C24.0308 26.4581 24.231 26.9145 24.0625 27.5021C23.9883 27.6864 23.9088 27.8673 23.8281 28.049C23.9174 28.144 23.9174 28.144 24.0085 28.2409C24.773 29.0589 25.5253 29.8686 26.0263 30.8801C26.0537 30.9354 26.0812 30.9907 26.1095 31.0477C26.1301 31.0894 26.1506 31.131 26.1718 31.174C26.2341 31.1755 26.2964 31.1771 26.3605 31.1787C26.6427 31.1861 26.9248 31.1947 27.207 31.2033C27.305 31.2057 27.403 31.2081 27.5039 31.2106C27.6452 31.2151 27.6452 31.2151 27.7893 31.2197C27.876 31.2222 27.9627 31.2247 28.0521 31.2272C28.2747 31.2514 28.408 31.2861 28.5937 31.4083C28.7129 31.6466 28.6903 31.8492 28.6718 32.1115C28.5815 32.2442 28.5815 32.2442 28.4375 32.3458C28.2355 32.3755 28.2355 32.3755 27.9877 32.3759C27.8933 32.3766 27.799 32.3774 27.7018 32.3781C27.5965 32.3778 27.4913 32.3774 27.386 32.377C27.2747 32.3774 27.1633 32.3779 27.0519 32.3786C26.7451 32.38 26.4384 32.3799 26.1316 32.3797C25.801 32.3796 25.4705 32.3809 25.1399 32.382C24.567 32.3838 23.994 32.3847 23.4211 32.3851C22.5927 32.3856 21.7643 32.3874 20.9359 32.3895C19.592 32.3929 18.2481 32.3952 16.9042 32.3969C15.5985 32.3985 14.2928 32.4007 12.9871 32.4035C12.8664 32.4037 12.8664 32.4037 12.7433 32.404C12.3397 32.4049 11.9362 32.4057 11.5326 32.4066C8.18318 32.4139 4.83377 32.4195 1.48435 32.424C1.5568 32.6125 1.62992 32.8007 1.70346 32.9889C1.73393 33.0685 1.73393 33.0685 1.76501 33.1497C1.94177 33.5992 2.14191 33.9551 2.55611 34.2327C2.80646 34.3258 3.04733 34.3206 3.31078 34.3191C3.39856 34.3195 3.39856 34.3195 3.48811 34.3199C3.68532 34.3206 3.88251 34.3202 4.07971 34.3199C4.22208 34.3202 4.36445 34.3205 4.50682 34.3209C4.89892 34.3219 5.29102 34.3219 5.68312 34.3217C6.10565 34.3217 6.52818 34.3225 6.95072 34.3233C7.77885 34.3246 8.60698 34.325 9.43511 34.3251C10.108 34.3251 10.781 34.3255 11.4539 34.326C13.3606 34.3273 15.2672 34.3281 17.1739 34.3279C17.2767 34.3279 17.3796 34.3279 17.4855 34.3279C17.5885 34.3279 17.6915 34.3279 17.7975 34.3279C19.4669 34.3278 21.1362 34.3293 22.8056 34.3315C24.5184 34.3338 26.2313 34.3349 27.9442 34.3347C28.9063 34.3347 29.8684 34.3351 30.8305 34.3368C31.6496 34.3382 32.4687 34.3386 33.2878 34.3375C33.7059 34.337 34.124 34.337 34.5421 34.3383C34.9246 34.3395 35.3071 34.3393 35.6896 34.338C35.8282 34.3377 35.9668 34.338 36.1054 34.3389C36.2935 34.34 36.4814 34.3392 36.6695 34.3379C36.7236 34.3386 36.7777 34.3394 36.8334 34.3402C37.2193 34.3345 37.435 34.224 37.7343 33.9865C38.0218 33.6871 38.1575 33.3673 38.3008 32.9855C38.3217 32.9314 38.3426 32.8772 38.3642 32.8215C38.4153 32.6892 38.4655 32.5566 38.5156 32.424C38.4143 32.4233 38.3131 32.4227 38.2087 32.4221C37.2557 32.416 36.3027 32.4092 35.3496 32.4015C34.8596 32.3976 34.3697 32.394 33.8797 32.391C33.407 32.3881 32.9344 32.3845 32.4618 32.3804C32.2812 32.3789 32.1007 32.3777 31.9201 32.3768C31.6677 32.3755 31.4154 32.3733 31.1631 32.3708C31.0879 32.3706 31.0128 32.3704 30.9354 32.3702C30.8667 32.3694 30.798 32.3685 30.7272 32.3676C30.6675 32.3672 30.6078 32.3667 30.5463 32.3663C30.3906 32.3458 30.3906 32.3458 30.1562 32.1896C30.0735 31.9236 30.0553 31.7778 30.1596 31.5173C30.3734 31.2556 30.5437 31.2581 30.874 31.213C31.616 31.0907 32.0319 30.858 32.4823 30.2566C32.6934 29.868 32.7551 29.4495 32.7887 29.0136C32.7968 28.9122 32.8049 28.8108 32.8133 28.7064C32.8216 28.5953 32.8299 28.4843 32.8381 28.3733C32.8474 28.2553 32.8566 28.1373 32.8659 28.0193C32.891 27.6999 32.9153 27.3804 32.9395 27.061C32.965 26.7257 32.9911 26.3905 33.0171 26.0553C33.0607 25.4921 33.1038 24.9289 33.1467 24.3656C33.1961 23.7161 33.2462 23.0666 33.2966 22.4172C33.3452 21.7908 33.3935 21.1644 33.4415 20.538C33.4619 20.2722 33.4824 20.0065 33.503 19.7407C33.5273 19.427 33.5512 19.1133 33.575 18.7996C33.5837 18.6851 33.5925 18.5705 33.6014 18.456C33.6282 18.1122 33.6513 17.7683 33.6718 17.424C33.6812 17.2995 33.6812 17.2995 33.6907 17.1725C33.696 17.0593 33.696 17.0593 33.7015 16.9437C33.7072 16.8471 33.7071 16.8471 33.7129 16.7485C33.6483 16.4592 33.5153 16.3498 33.2812 16.174C33.0568 16.1356 32.8789 16.1213 32.655 16.1249C32.5924 16.1243 32.5297 16.1238 32.4652 16.1232C32.2555 16.1218 32.0459 16.1233 31.8362 16.1247C31.6858 16.1243 31.5354 16.1237 31.385 16.123C30.9766 16.1215 30.5682 16.1225 30.1599 16.1241C29.7327 16.1253 29.3056 16.1247 28.8784 16.1243C28.1612 16.1239 27.444 16.1252 26.7267 16.1273C25.8971 16.1298 25.0674 16.1298 24.2378 16.1285C23.4401 16.1273 22.6424 16.1278 21.8447 16.1291C21.505 16.1296 21.1653 16.1296 20.8256 16.129C20.4258 16.1284 20.026 16.1293 19.6262 16.1315C19.4793 16.132 19.3324 16.132 19.1855 16.1315C18.9853 16.1308 18.7852 16.132 18.585 16.1338C18.5266 16.1331 18.4682 16.1325 18.408 16.1318C18.1415 16.1361 17.9941 16.155 17.7779 16.3165ZM34.7656 19.1427C34.7245 19.3515 34.6984 19.5457 34.6808 19.7567C34.6747 19.8191 34.6687 19.8814 34.6625 19.9456C34.6435 20.1466 34.6262 20.3478 34.6093 20.549C34.6037 20.6142 34.5981 20.6794 34.5922 20.7466C34.5583 21.1412 34.5271 21.5361 34.4974 21.9311C34.4822 22.1342 34.4664 22.3372 34.4507 22.5402C34.4407 22.6712 34.4307 22.8021 34.4207 22.933C34.4161 22.9928 34.4115 23.0526 34.4067 23.1143C34.3231 23.6834 34.3231 23.6834 34.4726 24.2019C35.1809 24.7552 35.8123 25.0053 36.7187 24.924C37.4351 24.7697 37.9679 24.4048 38.406 23.8198C38.9751 22.894 38.9587 21.5493 38.7356 20.512C38.494 19.7641 38.0166 19.2423 37.3291 18.8839C36.4821 18.4751 35.5347 18.63 34.7656 19.1427ZM10.7031 23.674C10.6281 23.7014 10.553 23.7288 10.4757 23.757C10.2994 23.8894 10.2994 23.8894 10.2873 24.0623C10.2852 24.2597 10.294 24.4535 10.3076 24.6505C10.3525 25.3446 10.3525 25.3446 10.1773 25.5554C9.89618 25.6691 9.67634 25.6422 9.37497 25.6271C9.35241 25.553 9.32985 25.4789 9.30661 25.4025C9.23683 25.1543 9.23683 25.1543 9.06247 25.0021C7.60444 25.43 6.33745 25.9861 5.15622 26.9552C5.25683 27.2261 5.37416 27.4586 5.53323 27.6995C5.59974 27.8008 5.59974 27.8008 5.66759 27.9042C5.71536 27.9761 5.76313 28.0481 5.81235 28.1222C5.86167 28.197 5.911 28.2719 5.96182 28.3489C6.06607 28.5069 6.17049 28.6648 6.27507 28.8225C6.43476 29.0635 6.59387 29.3048 6.7529 29.5462C6.85439 29.6998 6.95591 29.8534 7.05747 30.007C7.10492 30.0789 7.15238 30.1509 7.20127 30.225C7.32548 30.4121 7.45151 30.5978 7.5781 30.7833C7.6306 30.863 7.68311 30.9427 7.73721 31.0248C7.88267 31.1933 7.88267 31.1933 8.11253 31.2183C8.196 31.2163 8.27946 31.2142 8.36545 31.2121C8.45609 31.2109 8.54672 31.2096 8.64011 31.2083C8.73437 31.205 8.82863 31.2018 8.92575 31.1984C9.02122 31.1966 9.11669 31.1949 9.21506 31.193C9.45075 31.1884 9.68625 31.182 9.92185 31.174C9.91661 31.1308 9.91136 31.0876 9.90596 31.0431C9.85157 30.5934 9.79857 30.1434 9.74637 29.6934C9.72671 29.5255 9.7067 29.3577 9.68633 29.1899C9.65709 28.9485 9.62913 28.7071 9.60141 28.4655C9.58738 28.3532 9.58738 28.3532 9.57308 28.2386C9.49847 27.5685 9.49847 27.5685 9.68747 27.2677C9.92185 27.1115 9.92185 27.1115 10.2002 27.131C10.4687 27.1896 10.4687 27.1896 10.625 27.3458C10.6689 27.5589 10.6689 27.5589 10.7031 27.8299C10.7223 27.9783 10.7223 27.9783 10.7419 28.1297C10.755 28.2363 10.7681 28.3428 10.7812 28.4494C10.7949 28.5568 10.8087 28.6642 10.8225 28.7716C10.8798 29.2191 10.9348 29.6669 10.9897 30.1147C11.0003 30.2013 11.0003 30.2013 11.0112 30.2897C11.0288 30.435 11.0459 30.5803 11.0629 30.7257C11.0882 30.9462 11.0882 30.9462 11.1718 31.174C13.0797 31.174 14.9875 31.174 16.9531 31.174C17.0924 30.0425 17.0924 30.0425 17.2308 28.9109C17.2871 28.4489 17.3435 27.9868 17.4006 27.5248C17.4466 27.1521 17.4921 26.7792 17.5373 26.4064C17.5546 26.2647 17.572 26.123 17.5897 25.9813C17.679 25.2627 17.7666 24.5562 17.7343 23.8302C16.9627 23.5205 16.2143 23.2668 15.3906 23.1271C15.332 23.1168 15.2734 23.1065 15.213 23.096C13.709 22.8828 12.1038 23.0954 10.7031 23.674ZM18.9062 25.0021C18.7282 26.293 18.5612 27.5851 18.4054 28.8789C18.3878 29.0249 18.3701 29.1709 18.3522 29.3169C18.327 29.524 18.3022 29.7312 18.2776 29.9383C18.2662 30.0306 18.2662 30.0306 18.2547 30.1247C18.2133 30.4773 18.1959 30.819 18.2031 31.174C18.8033 31.3866 19.4727 31.518 20.0809 31.2681C21.1208 30.6302 21.8029 29.0297 22.3907 27.9996C22.5268 27.7691 22.6757 27.5482 22.829 27.3289C22.9045 27.1897 22.9045 27.1897 22.8723 27.0258C22.6055 26.3629 21.331 25.8228 20.7031 25.549C20.1186 25.3215 19.5229 25.1195 18.9062 25.0021ZM4.92185 29.0646C4.73014 29.2641 4.5548 29.4794 4.37497 29.6896C4.30196 29.7733 4.22892 29.8571 4.15585 29.9408C4.07912 30.0295 4.00242 30.1183 3.92575 30.2072C3.88891 30.2492 3.85206 30.2912 3.8141 30.3345C3.57773 30.6105 3.44902 30.8384 3.28122 31.174C4.28669 31.174 5.29216 31.174 6.3281 31.174C6.02568 30.6233 6.02568 30.6233 5.69699 30.0946C5.65631 30.0334 5.61562 29.9722 5.5737 29.9092C5.53261 29.848 5.49152 29.7868 5.44919 29.7238C5.40689 29.6599 5.36459 29.596 5.32102 29.5301C5.28073 29.4699 5.24045 29.4096 5.19895 29.3475C5.16256 29.2931 5.12618 29.2386 5.0887 29.1825C5.04478 29.1242 5.04478 29.1242 4.99997 29.0646C4.97419 29.0646 4.94841 29.0646 4.92185 29.0646ZM23.0468 29.1427C22.9392 29.2799 22.8385 29.4226 22.7411 29.5672C22.7118 29.6104 22.6825 29.6536 22.6524 29.698C22.5906 29.7895 22.529 29.8811 22.4676 29.9729C22.3734 30.1139 22.2784 30.2543 22.1832 30.3947C21.8785 30.7641 21.8785 30.7641 21.7187 31.174C22.7242 31.174 23.7297 31.174 24.7656 31.174C24.623 30.811 24.623 30.811 24.4055 30.5252C24.3658 30.4795 24.3261 30.4339 24.2852 30.3869C24.244 30.3405 24.2027 30.2941 24.1601 30.2462C24.0792 30.1537 23.9982 30.0611 23.9172 29.9685C23.877 29.9231 23.8367 29.8777 23.7953 29.831C23.7096 29.7328 23.6253 29.6334 23.5423 29.533C23.5009 29.4829 23.4594 29.4329 23.4167 29.3814C23.3794 29.3356 23.3421 29.2899 23.3037 29.2428C23.2083 29.1244 23.2083 29.1244 23.0468 29.1427Z" fill="#3B3B3B"/>
<path d="M26.2405 5.51978C26.4661 5.52757 26.5573 5.54592 26.7581 5.66138C26.9356 5.96473 26.9296 6.22185 26.8752 6.5647C26.7335 7.02542 26.5073 7.39261 26.1721 7.73657C26.1206 7.73657 26.069 7.73657 26.0159 7.73657C25.982 7.80667 25.982 7.80667 25.9475 7.87817C25.8596 8.04907 25.8596 8.04907 25.7034 8.28345C25.7193 8.53771 25.7314 8.69608 25.9036 8.88892C25.9406 8.92114 25.9777 8.95337 26.0159 8.98657C26.0159 9.03813 26.0159 9.0897 26.0159 9.14282C26.0811 9.16458 26.0811 9.16458 26.1477 9.18677C26.4777 9.3919 26.6569 9.71574 26.8215 10.0608C26.9419 10.6298 26.9438 11.1734 26.6833 11.702C26.4826 11.9936 26.216 12.2173 25.9585 12.4583C25.7293 12.7174 25.6709 12.9463 25.5959 13.2773C25.5471 13.4397 25.5471 13.4397 25.3665 13.6106C25.104 13.69 24.9494 13.6756 24.6877 13.5959C24.532 13.4725 24.4639 13.3826 24.3752 13.2053C24.3256 12.7193 24.4364 12.3646 24.6877 11.9553C24.8616 11.7425 25.0429 11.5418 25.2328 11.3431C25.4279 11.1345 25.5391 10.9991 25.5776 10.7123C25.5388 10.4048 25.445 10.3264 25.2151 10.1243C24.706 9.64795 24.3831 9.12976 24.3459 8.41528C24.3736 7.54347 24.9625 6.99304 25.5471 6.40845C25.5903 6.29271 25.629 6.17524 25.6643 6.05688C25.7761 5.68253 25.8222 5.56026 26.2405 5.51978Z" fill="#3B3B3B"/>
<path d="M28.9843 6.17411C29.1747 6.28153 29.1747 6.28153 29.2968 6.48661C29.4289 7.13613 29.157 7.69714 28.9061 8.28349C28.8804 8.36083 28.8546 8.43818 28.828 8.51786C28.902 8.66581 28.9763 8.8136 29.0526 8.96037C29.5204 9.93173 29.5093 11.1354 29.2071 12.1565C29.0979 12.4675 28.9914 12.7203 28.7694 12.9661C28.5056 13.0907 28.3242 13.0416 28.0468 12.971C27.841 12.8407 27.8176 12.7575 27.7584 12.5199C27.7314 12.2376 27.7766 12.1018 27.8856 11.8431C28.1653 11.0578 28.1482 10.2643 27.8301 9.49412C27.7058 9.2411 27.5657 9.00067 27.4105 8.76536C27.3146 8.52241 27.3546 8.37809 27.4218 8.12724C27.5041 7.94718 27.5925 7.7698 27.6854 7.59501C27.8516 7.27762 28.0016 6.96739 28.1054 6.62333C28.2654 6.14313 28.5142 6.12463 28.9843 6.17411Z" fill="#3B3B3B"/>
<path d="M22.6124 6.75024C22.8907 6.79907 22.8907 6.79907 23.1251 6.94556C23.3542 7.30362 23.2647 7.56517 23.2032 7.97095C23.1281 8.84464 23.3377 9.61372 23.8291 10.3379C23.9528 10.5511 23.954 10.7014 23.9063 10.9397C23.7891 11.1643 23.7891 11.1643 23.5938 11.3303C23.215 11.4036 23.215 11.4036 22.9688 11.3303C22.3181 10.8541 22.0574 9.93838 21.9141 9.18921C21.8092 8.43487 21.7872 7.63267 22.1631 6.95044C22.3438 6.79907 22.3438 6.79907 22.6124 6.75024Z" fill="#3B3B3B"/>
</g>
<defs>
<clipPath id="clip0_468_597">
<rect width="40" height="40" fill="white" transform="translate(0 0.549072)"/>
</clipPath>
</defs>
</svg>
