<svg width="40" height="41" viewBox="0 0 40 41" fill="none" xmlns="http://www.w3.org/2000/svg">
<g clip-path="url(#clip0_468_594)">
<path d="M14.7125 21.3249C15.3556 21.7478 16.0033 22.1009 16.7187 22.3846C16.7677 22.4041 16.8168 22.4236 16.8673 22.4437C19.2593 23.3668 21.5539 23.0764 23.8726 22.1124C24.5628 21.7898 25.1887 21.366 25.8186 20.9398C27.2922 19.9512 27.2922 19.9512 28.1054 19.9969C28.1649 19.9988 28.2244 20.0006 28.2857 20.0026C30.2601 20.0897 32.1258 20.8927 33.4772 22.3561C36.014 25.27 36.6496 29.4357 36.7187 33.1659C36.7218 33.2605 36.7249 33.355 36.7281 33.4525C36.7642 35.1599 36.4328 37.0512 35.2636 38.3661C35.1509 38.4828 35.0371 38.5986 34.9218 38.7128C34.8541 38.7837 34.7864 38.8546 34.7167 38.9276C34.6555 38.9856 34.5943 39.0436 34.5312 39.1034C34.4757 39.1569 34.4757 39.1569 34.4192 39.2114C32.8092 40.6862 30.7395 40.7795 28.6839 40.7756C28.4728 40.776 28.2617 40.7766 28.0506 40.7772C27.5391 40.7785 27.0276 40.7786 26.5161 40.7782C26.0999 40.7779 25.6836 40.778 25.2674 40.7784C25.2079 40.7785 25.1484 40.7785 25.0871 40.7786C24.9662 40.7787 24.8453 40.7788 24.7243 40.779C23.5933 40.78 22.4622 40.7796 21.3311 40.7787C20.2993 40.7779 19.2674 40.7789 18.2356 40.7808C17.1728 40.7827 16.11 40.7835 15.0472 40.783C14.4519 40.7827 13.8565 40.7828 13.2612 40.7842C12.7543 40.7854 12.2475 40.7854 11.7406 40.7841C11.4827 40.7834 11.2248 40.7834 10.9669 40.7844C8.70245 40.7928 6.75269 40.4356 5.07804 38.7909C5.01762 38.7324 4.95719 38.6739 4.89494 38.6136C3.78462 37.4671 3.27321 35.8687 3.2653 34.2947C3.26475 34.2226 3.2642 34.1505 3.26364 34.0763C3.26227 33.8428 3.26177 33.6093 3.26163 33.3759C3.26158 33.2963 3.26153 33.2167 3.26147 33.1347C3.26275 31.9295 3.30562 30.7614 3.51554 29.5721C3.52978 29.488 3.54402 29.4038 3.55868 29.3171C3.98174 26.8477 4.71589 24.5001 6.32804 22.5409C6.36973 22.4872 6.41143 22.4335 6.45438 22.3782C7.53174 21.03 9.32714 20.2535 11.0085 20.0578C12.5609 19.8973 13.4452 20.4833 14.7125 21.3249ZM10.7226 22.5897C10.6415 22.6107 10.6415 22.6107 10.5588 22.6321C9.1195 23.0261 8.14837 23.9857 7.41202 25.2557C6.09586 27.6117 5.69348 30.3794 5.67569 33.0462C5.6744 33.1872 5.67227 33.3281 5.66928 33.469C5.64242 34.7493 5.771 35.9036 6.64054 36.9159C6.68314 36.9661 6.72574 37.0164 6.76963 37.0682C7.74909 38.1306 9.14867 38.3523 10.5254 38.409C11.0906 38.4234 11.6558 38.4216 12.2211 38.4205C12.4092 38.4207 12.5972 38.421 12.7853 38.4213C13.2395 38.4219 13.6938 38.4219 14.1481 38.4214C14.5179 38.4211 14.8876 38.421 15.2574 38.4212C15.3368 38.4212 15.3368 38.4212 15.4179 38.4212C15.5255 38.4213 15.6332 38.4213 15.7408 38.4214C16.7462 38.4218 17.7517 38.4213 18.7571 38.4205C19.6167 38.4198 20.4763 38.4199 21.3359 38.4206C22.3382 38.4215 23.3404 38.4218 24.3427 38.4213C24.4499 38.4213 24.5571 38.4212 24.6643 38.4212C24.717 38.4212 24.7698 38.4211 24.8241 38.4211C25.1927 38.421 25.5613 38.4212 25.9299 38.4216C26.4275 38.422 26.9251 38.4217 27.4227 38.4208C27.6043 38.4206 27.7859 38.4206 27.9675 38.421C30.7688 38.4369 30.7688 38.4369 33.1493 37.0868C34.2581 35.9032 34.3262 34.4528 34.2773 32.9169C34.2755 32.8582 34.2737 32.7995 34.2718 32.7391C34.1706 29.5864 33.6375 25.8825 31.2432 23.5937C30.4072 22.8833 29.2546 22.4117 28.143 22.4286C27.7622 22.5032 27.4533 22.7547 27.1386 22.9706C26.9853 23.0718 26.8319 23.1728 26.6784 23.2736C26.6046 23.3226 26.5308 23.3715 26.4548 23.422C23.9631 25.058 20.9185 25.8551 17.9583 25.2826C15.9288 24.8455 14.232 23.9837 12.5269 22.8189C11.8952 22.3991 11.4496 22.4016 10.7226 22.5897Z" fill="#3B3B3B"/>
<path d="M25.6983 2.73097C26.3727 3.2962 26.9671 3.86961 27.5 4.57209C27.5472 4.63373 27.5945 4.69536 27.6431 4.75886C28.5373 5.97793 29.0303 7.3068 29.2969 8.79084C29.3114 8.87081 29.3259 8.95077 29.3408 9.03315C29.6358 11.6615 29.0351 14.1817 27.4219 16.2908C27.1979 16.5621 26.9624 16.8184 26.7188 17.0721C26.6529 17.1429 26.587 17.2137 26.5192 17.2866C26.0036 17.8253 25.469 18.2345 24.8438 18.6346C24.7788 18.6779 24.7138 18.7212 24.6469 18.7658C23.2049 19.6889 21.4385 20.0737 19.7461 20.0653C19.6541 20.0649 19.5621 20.0645 19.4674 20.0641C18.7354 20.0543 18.053 19.9856 17.3438 19.8065C17.2665 19.787 17.2665 19.787 17.1876 19.7671C15.7781 19.4 14.4441 18.7026 13.3804 17.7059C13.2327 17.5684 13.0824 17.442 12.9248 17.3162C12.5487 16.9958 12.2537 16.6024 11.9531 16.2127C11.9064 16.1525 11.8597 16.0923 11.8115 16.0302C10.5942 14.379 10.046 12.4759 10.0488 10.4364C10.0489 10.3836 10.0489 10.3309 10.049 10.2765C10.0541 8.88702 10.2719 7.63241 10.8594 6.36897C10.8946 6.28921 10.9299 6.20945 10.9662 6.12727C11.718 4.51325 13.0461 3.10912 14.5313 2.15022C14.5999 2.1053 14.6686 2.06039 14.7394 2.01411C18.0468 -0.0359578 22.6866 0.281116 25.6983 2.73097ZM14.19 5.63414C12.7361 7.31108 12.405 9.19888 12.5 11.369C12.5659 12.1185 12.7982 12.8044 13.125 13.4783C13.1605 13.5515 13.1959 13.6246 13.2324 13.6999C14.1038 15.3906 15.6566 16.726 17.4619 17.3184C19.2647 17.8567 21.2754 17.7722 22.9688 16.9158C23.6674 16.5353 24.2726 16.0632 24.8438 15.5096C24.8906 15.4685 24.9374 15.4274 24.9857 15.3851C26.166 14.3115 26.8835 12.5905 26.9628 11.021C27.0246 8.98064 26.5709 7.24939 25.2344 5.66584C25.1748 5.58689 25.1151 5.50793 25.0537 5.42659C23.9069 4.17305 22.2604 3.25548 20.549 3.15177C18.026 3.04799 15.9181 3.7308 14.19 5.63414Z" fill="#3B3B3B"/>
</g>
<defs>
<clipPath id="clip0_468_594">
<rect width="40" height="40" fill="white" transform="translate(0 0.743896)"/>
</clipPath>
</defs>
</svg>
