<svg width="40" height="41" viewBox="0 0 40 41" fill="none" xmlns="http://www.w3.org/2000/svg">
<path d="M5.86671 3.23705C5.9938 3.23669 6.12088 3.23619 6.24797 3.23557C6.59566 3.23427 6.94332 3.23491 7.29101 3.23588C7.66657 3.23659 8.04212 3.2355 8.41768 3.23464C9.1528 3.23325 9.88791 3.23355 10.623 3.23446C11.2206 3.23516 11.8181 3.23526 12.4156 3.23492C12.5007 3.23487 12.5858 3.23482 12.6735 3.23477C12.8464 3.23467 13.0193 3.23457 13.1921 3.23447C14.8126 3.23358 16.4331 3.2346 18.0536 3.23628C19.4436 3.23768 20.8335 3.23743 22.2235 3.23599C23.8383 3.23432 25.453 3.23366 27.0678 3.23462C27.24 3.23472 27.4123 3.23482 27.5845 3.23492C27.7116 3.23499 27.7116 3.23499 27.8413 3.23506C28.438 3.23533 29.0347 3.23488 29.6314 3.23414C30.3588 3.23327 31.0861 3.2335 31.8134 3.23517C32.1844 3.23599 32.5554 3.23631 32.9264 3.23528C33.2662 3.23434 33.606 3.23486 33.9459 3.23652C34.0686 3.23687 34.1913 3.23669 34.314 3.23593C35.077 3.23157 35.7506 3.26646 36.3767 3.74609C36.4235 3.80068 36.4704 3.85526 36.5186 3.9115C36.5669 3.96488 36.6151 4.01825 36.6648 4.07324C37.0805 4.76255 37.0647 5.51329 37.0606 6.29337C37.0608 6.41638 37.0611 6.53938 37.0615 6.66239C37.0623 6.9988 37.0617 7.33519 37.0608 7.6716C37.0601 8.03501 37.0608 8.39842 37.0613 8.76184C37.062 9.47309 37.0615 10.1843 37.0605 10.8956C37.0595 11.724 37.0596 12.5525 37.0598 13.381C37.06 14.8591 37.0591 16.3373 37.0576 17.8155C37.0561 19.2496 37.0555 20.6837 37.056 22.1178C37.0565 23.6799 37.0564 25.2421 37.0556 26.8043C37.0555 26.9708 37.0554 27.1374 37.0553 27.304C37.0552 27.4269 37.0552 27.4269 37.0551 27.5524C37.0548 28.1298 37.0549 28.7072 37.055 29.2846C37.0552 29.9881 37.0548 30.6917 37.0536 31.3953C37.0531 31.7542 37.0527 32.1132 37.0531 32.4721C37.0534 32.8008 37.053 33.1294 37.052 33.4581C37.0518 33.5769 37.0518 33.6957 37.0522 33.8145C37.0544 34.7175 37.0207 35.4551 36.4063 36.1674C35.8664 36.627 35.2417 36.7351 34.5484 36.7295C34.4665 36.7292 34.4665 36.7292 34.3829 36.7288C34.211 36.728 34.0392 36.726 33.8673 36.724C33.7497 36.7232 33.6321 36.7225 33.5145 36.7219C33.2284 36.7202 32.9424 36.7175 32.6563 36.7142C32.6577 36.7899 32.659 36.8656 32.6604 36.9435C32.662 37.092 32.662 37.092 32.6636 37.2434C32.665 37.3416 32.6664 37.4399 32.6678 37.5411C32.6531 37.8829 32.5927 38.0403 32.3438 38.2767C31.966 38.5357 31.6354 38.6493 31.1719 38.5892C30.7238 38.4223 30.4933 38.1849 30.293 37.7543C30.2344 37.4955 30.2344 37.4955 30.2344 36.7142C23.4798 36.7142 16.7251 36.7142 9.7657 36.7142C9.7657 36.972 9.7657 37.2299 9.7657 37.4955C9.64324 37.9466 9.54566 38.1762 9.1407 38.433C9.09397 38.4652 9.04724 38.4974 8.99909 38.5306C8.63018 38.6571 8.30646 38.627 7.94929 38.4965C7.67056 38.3128 7.49287 38.1061 7.34382 37.808C7.33826 37.6225 7.33725 37.4369 7.33894 37.2513C7.33964 37.1512 7.34035 37.0511 7.34107 36.948C7.34198 36.8709 7.34289 36.7937 7.34382 36.7142C7.27136 36.7151 7.1989 36.7159 7.12425 36.7167C6.85284 36.7194 6.58145 36.7213 6.31004 36.7228C6.19305 36.7236 6.07607 36.7247 5.95909 36.726C5.78996 36.7279 5.62086 36.7288 5.45173 36.7295C5.35027 36.7303 5.2488 36.7311 5.14427 36.732C4.48612 36.6931 3.92062 36.505 3.45588 36.0248C2.89709 35.3345 2.94603 34.5586 2.94793 33.712C2.94764 33.5887 2.94728 33.4653 2.94686 33.342C2.9459 33.0039 2.94592 32.6658 2.9461 32.3277C2.94614 31.9628 2.94527 31.5978 2.94453 31.2328C2.94324 30.5181 2.94281 29.8035 2.94272 29.0888C2.94264 28.5078 2.94232 27.9268 2.94183 27.3458C2.94045 25.698 2.93973 24.0503 2.93985 22.4025C2.93985 22.3137 2.93986 22.2249 2.93987 22.1334C2.93987 22.0445 2.93988 21.9556 2.93989 21.864C2.93995 20.423 2.93846 18.9821 2.93625 17.5411C2.93401 16.061 2.93293 14.581 2.93306 13.1009C2.93312 12.2701 2.93269 11.4394 2.931 10.6087C2.92958 9.90138 2.92924 9.19412 2.9303 8.48684C2.93081 8.12613 2.93082 7.76544 2.92947 7.40473C2.92824 7.07418 2.92846 6.74366 2.92982 6.41311C2.93006 6.29387 2.92978 6.17464 2.92891 6.0554C2.9234 5.24865 2.96129 4.45801 3.52546 3.82849C4.20719 3.22912 5.00468 3.23171 5.86671 3.23705ZM5.3907 5.69861C5.3907 15.1345 5.3907 24.5705 5.3907 34.2924C15.0329 34.2924 24.6751 34.2924 34.6094 34.2924C34.6094 24.8564 34.6094 15.4205 34.6094 5.69861C24.9673 5.69861 15.3251 5.69861 5.3907 5.69861Z" fill="#3B3B3B"/>
<path d="M9.68748 9.83936C10.0003 9.9958 10.2077 10.1659 10.3906 10.4644C10.4751 10.7178 10.479 10.902 10.4797 11.1687C10.4804 11.316 10.4804 11.316 10.481 11.4664C10.4811 11.5755 10.4812 11.6846 10.4813 11.7937C10.4817 11.9084 10.4821 12.0231 10.4825 12.1378C10.4835 12.4497 10.484 12.7616 10.4844 13.0734C10.4846 13.2683 10.4849 13.4631 10.4853 13.658C10.4863 14.2677 10.4871 14.8774 10.4874 15.487C10.4877 16.1908 10.4891 16.8945 10.4914 17.5982C10.4931 18.1422 10.4939 18.6862 10.494 19.2302C10.494 19.5551 10.4945 19.8799 10.4959 20.2048C10.4972 20.5105 10.4973 20.8162 10.4967 21.1219C10.4966 21.2339 10.4969 21.346 10.4977 21.458C10.4987 21.6113 10.4981 21.7645 10.4974 21.9178C10.4976 22.0035 10.4977 22.0892 10.4978 22.1774C10.4507 22.5667 10.2953 22.8194 10.0342 23.106C9.72063 23.3476 9.37067 23.3758 8.98435 23.355C8.57136 23.2225 8.37339 22.9925 8.12498 22.6519C8.04051 22.3985 8.0366 22.2142 8.03588 21.9476C8.03543 21.8493 8.03499 21.7511 8.03453 21.6498C8.03443 21.5408 8.03434 21.4317 8.03426 21.3226C8.0339 21.2078 8.03351 21.0931 8.03309 20.9784C8.03206 20.6665 8.03156 20.3547 8.03121 20.0428C8.03098 19.848 8.03066 19.6531 8.03031 19.4582C8.02924 18.8486 8.02849 18.2389 8.02819 17.6292C8.02784 16.9255 8.02647 16.2217 8.0242 15.518C8.02251 14.974 8.02173 14.43 8.02162 13.886C8.02154 13.5612 8.02108 13.2363 8.01968 12.9114C8.01839 12.6057 8.01823 12.3 8.01891 11.9944C8.01897 11.8823 8.01863 11.7703 8.01786 11.6582C8.01687 11.5049 8.01747 11.3517 8.01814 11.1984C8.01803 11.1127 8.01791 11.0271 8.01779 10.9388C8.06396 10.5574 8.19762 10.3054 8.48142 10.0493C8.86842 9.7814 9.22555 9.79174 9.68748 9.83936Z" fill="#3B3B3B"/>
<path d="M10.0683 25.2104C10.3419 25.5001 10.4805 25.7689 10.498 26.1674C10.4845 26.4746 10.4054 26.6892 10.2343 26.9487C9.83022 27.3134 9.57838 27.368 9.04385 27.3603C8.73315 27.33 8.58227 27.2443 8.35934 27.0268C8.07327 26.6214 7.98358 26.2671 8.04684 25.7768C8.25119 25.3681 8.53872 25.0938 8.97733 24.9449C9.36242 24.8801 9.74215 25.0118 10.0683 25.2104Z" fill="#3B3B3B"/>
</svg>
