<svg width="40" height="41" viewBox="0 0 40 41" fill="none" xmlns="http://www.w3.org/2000/svg">
<g clip-path="url(#clip0_468_611)">
<path d="M20.0538 0.719393C20.1673 0.715994 20.1673 0.715994 20.2831 0.712527C21.0769 0.70555 21.533 0.992841 22.1094 1.51041C22.1811 1.57308 22.1811 1.57308 22.2541 1.63702C22.4468 1.80597 22.6376 1.97678 22.8272 2.14914C25.6015 4.65433 29.2091 5.63159 32.8396 5.99661C34.2373 6.13813 35.3231 6.63828 36.2495 7.71402C36.9713 8.71388 37.1215 9.82866 37.1208 11.0247C37.1212 11.1305 37.1212 11.1305 37.1216 11.2384C37.1223 11.4696 37.1225 11.7009 37.1226 11.9322C37.1228 12.0957 37.1231 12.2593 37.1234 12.4228C37.1238 12.7657 37.124 13.1086 37.1239 13.4516C37.1239 13.7988 37.1245 14.1461 37.1255 14.4933C37.137 18.2535 37.137 18.2535 36.9532 20.0407C36.9441 20.1333 36.9441 20.1333 36.9347 20.2277C36.9 20.5732 36.8582 20.9173 36.8116 21.2614C36.7982 21.3615 36.7849 21.4616 36.7711 21.5648C36.1992 25.714 34.8929 29.6974 32.2657 33.0094C32.2056 33.0862 32.1455 33.1629 32.0835 33.242C31.108 34.4618 29.9997 35.5853 28.7501 36.5251C28.7039 36.5604 28.6577 36.5958 28.6101 36.6322C27.2924 37.6369 25.862 38.4804 24.3649 39.1895C24.2162 39.2607 24.0689 39.3343 23.9216 39.4084C20.6021 41.0558 20.6021 41.0558 18.8972 40.5244C16.1768 39.6006 13.593 38.2123 11.3282 36.4469C11.2596 36.3936 11.191 36.3402 11.1204 36.2852C6.45312 32.5596 4.13011 27.1858 3.34968 21.3639C3.33728 21.2731 3.32487 21.1823 3.31209 21.0887C3.27089 20.7658 3.23567 20.4427 3.2032 20.1188C3.19619 20.0509 3.18919 19.983 3.18197 19.9131C3.00608 18.1309 3.02286 16.3442 3.02658 14.5553C3.02748 14.1189 3.02695 13.6826 3.02602 13.2463C3.02545 12.9057 3.02564 12.565 3.02604 12.2244C3.02614 12.0635 3.02602 11.9026 3.02565 11.7417C3.02058 8.90684 3.02058 8.90684 3.90632 7.77506C3.95255 7.71584 3.99877 7.65662 4.0464 7.59561C4.88814 6.58369 5.95732 6.1238 7.25258 5.98825C7.4343 5.97281 7.61609 5.95808 7.79793 5.944C11.0136 5.64967 14.0554 4.66687 16.6407 2.69693C16.7094 2.64487 16.7781 2.5928 16.8488 2.53916C17.2168 2.25238 17.5602 1.946 17.9005 1.6276C18.5924 0.981005 19.1121 0.728607 20.0538 0.719393ZM19.7987 3.17308C19.7592 3.21294 19.7197 3.25279 19.679 3.29386C19.6336 3.33839 19.5882 3.38293 19.5414 3.42882C19.4687 3.50159 19.4687 3.50159 19.3946 3.57584C16.5234 6.34669 12.5731 7.93685 8.62922 8.30118C8.47817 8.3152 8.47817 8.3152 8.32407 8.3295C8.12822 8.34679 7.93222 8.36253 7.73611 8.37646C7.06057 8.43384 6.4111 8.56914 5.94246 9.0983C5.50942 9.74129 5.45706 10.3154 5.45748 11.0703C5.45721 11.1401 5.45695 11.21 5.45668 11.2819C5.45594 11.5123 5.45579 11.7427 5.4557 11.9731C5.45545 12.1354 5.45519 12.2977 5.45491 12.46C5.45445 12.801 5.4543 13.1419 5.45435 13.4829C5.45435 13.8285 5.45382 14.1741 5.45275 14.5197C5.43956 17.2452 5.43956 17.2452 5.62507 19.9626C5.63099 20.0215 5.6369 20.0804 5.643 20.1411C5.67637 20.4716 5.71642 20.8006 5.76179 21.1295C5.78162 21.2742 5.78162 21.2742 5.80185 21.4217C6.43911 25.8667 8.16858 30.6049 11.717 33.5783C11.8266 33.6714 11.9335 33.7677 12.038 33.8664C13.1048 34.8713 14.3558 35.6477 15.6251 36.3688C15.6835 36.4023 15.7419 36.4358 15.8021 36.4703C18.0758 37.8174 18.0758 37.8174 20.5469 38.1657C20.8631 38.0644 21.1683 37.9416 21.4747 37.8141C21.6036 37.7613 21.6036 37.7613 21.7351 37.7074C23.9363 36.796 26.002 35.6658 27.8126 34.1032C27.8726 34.0518 27.9326 34.0005 27.9945 33.9475C32.4952 29.9982 34.2644 24.4521 34.6496 18.6012C34.7001 17.7712 34.7004 16.9416 34.7007 16.1103C34.7009 15.9459 34.7012 15.7816 34.7015 15.6172C34.702 15.2753 34.7021 14.9334 34.7021 14.5916C34.702 14.1551 34.7031 13.7186 34.7045 13.2822C34.7053 12.9438 34.7055 12.6054 34.7054 12.267C34.7055 12.106 34.7059 11.9451 34.7065 11.7842C34.7073 11.5592 34.707 11.3342 34.7066 11.1093C34.707 11.044 34.7074 10.9788 34.7079 10.9116C34.7039 10.153 34.616 9.50159 34.0626 8.94693C33.439 8.3999 32.5848 8.40368 31.7948 8.32292C28.3892 7.97239 25.1142 6.93872 22.3438 4.88443C22.2964 4.84929 22.249 4.81414 22.2002 4.77793C21.6223 4.3451 21.0795 3.88661 20.5673 3.37719C20.2271 3.04593 20.2271 3.04593 19.7987 3.17308Z" fill="#3B3B3B"/>
<path d="M23.8327 13.7631C24.6793 14.5353 25.3292 15.811 25.4032 16.954C25.4318 18.7283 25.1709 20.1308 23.9161 21.4483C23.7391 21.6276 23.5697 21.7757 23.3594 21.9159C23.2703 22.4345 23.2698 22.9526 23.2676 23.4778C23.2657 23.6424 23.2639 23.8071 23.2619 23.9718C23.2592 24.2281 23.2569 24.4843 23.2558 24.7406C23.2546 24.9903 23.2515 25.2398 23.248 25.4895C23.2482 25.5649 23.2483 25.6402 23.2485 25.7179C23.2324 26.6271 22.8917 27.4091 22.2858 28.0829C21.6894 28.657 20.9262 28.9095 20.1123 28.9666C19.3351 28.9518 18.644 28.7425 18.0469 28.244C17.9914 28.1981 17.9359 28.1521 17.8788 28.1048C17.217 27.5035 16.9884 26.7656 16.875 25.9002C16.8637 25.5948 16.8746 25.2919 16.8872 24.9865C16.8915 24.8145 16.8956 24.6425 16.8994 24.4705C16.9062 24.2031 16.9142 23.936 16.9254 23.6688C17.0249 22.6512 17.0249 22.6512 16.7085 21.7276C16.5119 21.5521 16.3195 21.425 16.0938 21.2909C15.0619 20.2147 14.7264 18.8667 14.7383 17.4184C14.7748 15.9096 15.4064 14.6643 16.4942 13.6248C18.7183 11.737 21.6354 12.0077 23.8327 13.7631ZM18.0664 15.5487C17.3884 16.3021 17.1456 16.926 17.1662 17.9397C17.218 18.6785 17.5249 19.2854 18.0469 19.8065C18.2851 19.9974 18.5252 20.1755 18.7757 20.35C19.0516 20.561 19.1874 20.7278 19.2969 21.0565C19.3027 21.2086 19.3037 21.3609 19.3021 21.5131C19.3009 21.6539 19.3009 21.6539 19.2997 21.7976C19.2986 21.8992 19.2975 22.0007 19.2963 22.1054C19.2956 22.2108 19.2949 22.3162 19.2943 22.4215C19.2917 22.8689 19.2884 23.3162 19.2835 23.7635C19.2806 24.0373 19.2788 24.3111 19.2777 24.585C19.2768 24.7395 19.2746 24.8939 19.2724 25.0484C19.2721 25.143 19.2718 25.2377 19.2715 25.3351C19.2704 25.4595 19.2704 25.4595 19.2692 25.5864C19.3116 25.9476 19.4327 26.2082 19.7119 26.4422C19.9836 26.5496 20.1139 26.5394 20.3907 26.4471C20.6149 26.2861 20.7597 26.1597 20.8178 25.8824C20.8328 25.6633 20.8353 25.4472 20.8338 25.2276C20.8353 25.1057 20.8353 25.1057 20.8368 24.9814C20.8396 24.7212 20.8398 24.4612 20.8399 24.201C20.8421 23.8613 20.8453 23.5215 20.8484 23.1817C20.8492 23.0995 20.8499 23.0172 20.8507 22.9324C20.8556 22.4449 20.8608 21.9575 20.8802 21.4703C20.8836 21.3703 20.8871 21.2702 20.8906 21.1672C20.9629 20.756 21.149 20.5134 21.4691 20.2539C21.5483 20.1997 21.6275 20.1455 21.709 20.0897C22.3819 19.5985 22.7864 19.0694 22.9688 18.244C23.0605 17.2616 22.9253 16.5573 22.3395 15.7669C21.8176 15.1517 21.1163 14.8307 20.3223 14.7332C19.4439 14.687 18.7106 14.9631 18.0664 15.5487Z" fill="#3B3B3B"/>
</g>
<defs>
<clipPath id="clip0_468_611">
<rect width="40" height="40" fill="white" transform="translate(0 0.743896)"/>
</clipPath>
</defs>
</svg>
