<svg width="44" height="40" viewBox="0 0 44 40" fill="none" xmlns="http://www.w3.org/2000/svg">
<mask id="mask0_468_1431" style="mask-type:alpha" maskUnits="userSpaceOnUse" x="0" y="0" width="45" height="40">
<rect width="44.0059" height="40" fill="#D9D9D9"/>
</mask>
<g mask="url(#mask0_468_1431)">
<path d="M0 35V22.2727C0 21.5188 0.208389 20.716 0.625166 19.8641C1.04194 19.0126 1.64837 18.3731 2.44444 17.9455V12.0909C2.44444 10.6548 2.91459 9.44746 3.85489 8.46873C4.79478 7.48958 5.95426 7 7.33333 7H18.3333C19.1763 7 19.8955 7.1803 20.4912 7.54091C21.0864 7.90152 21.5893 8.4 22 9.03636C22.4107 8.4 22.9136 7.90152 23.5088 7.54091C24.1045 7.1803 24.8237 7 25.6667 7H36.6667C38.0457 7 39.2052 7.48958 40.1451 8.46873C41.0854 9.44746 41.5556 10.6548 41.5556 12.0909V17.9455C42.3516 18.3731 42.9581 19.0126 43.3748 19.8641C43.7916 20.716 44 21.5188 44 22.2727V35H41.5556V29.9091H2.44444V35H0ZM23.2222 17.1818H39.1111V12.0909C39.1111 11.3697 38.8769 10.7652 38.4083 10.2773C37.9398 9.78939 37.3593 9.54545 36.6667 9.54545H25.6667C24.9741 9.54545 24.3935 9.78939 23.925 10.2773C23.4565 10.7652 23.2222 11.3697 23.2222 12.0909V17.1818ZM4.88889 17.1818H20.7778V12.0909C20.7778 11.3697 20.5435 10.7652 20.075 10.2773C19.6065 9.78939 19.0259 9.54545 18.3333 9.54545H7.33333C6.64074 9.54545 6.06019 9.78939 5.59167 10.2773C5.12315 10.7652 4.88889 11.3697 4.88889 12.0909V17.1818ZM2.44444 27.3636H41.5556V22.2727C41.5556 21.5515 41.3213 20.947 40.8528 20.4591C40.3843 19.9712 39.8037 19.7273 39.1111 19.7273H4.88889C4.1963 19.7273 3.61574 19.9712 3.14722 20.4591C2.6787 20.947 2.44444 21.5515 2.44444 22.2727V27.3636Z" fill="#3B3B3B"/>
</g>
</svg>
