<svg width="40" height="41" viewBox="0 0 40 41" fill="none" xmlns="http://www.w3.org/2000/svg">
<g clip-path="url(#clip0_468_590)">
<path d="M32.7686 8.13159C33.2775 8.43974 33.5732 8.8612 33.7244 9.43408C33.7805 9.90704 33.6648 10.3746 33.5156 10.822C33.5633 10.794 33.6109 10.766 33.66 10.7372C33.8769 10.6103 34.0942 10.4842 34.3115 10.3582C34.3865 10.3141 34.4615 10.27 34.5387 10.2246C34.6115 10.1826 34.6842 10.1405 34.7592 10.0972C34.8259 10.0584 34.8926 10.0195 34.9613 9.97945C35.4561 9.73853 35.97 9.74639 36.4844 9.92358C36.9633 10.1288 37.2863 10.4636 37.5125 10.9313C37.6781 11.4444 37.6451 11.9939 37.4316 12.4871C37.1827 12.9235 36.8324 13.1506 36.4062 13.4001C36.3207 13.4504 36.2352 13.5006 36.1472 13.5524C35.9809 13.6492 35.814 13.7448 35.6464 13.839C35.5878 13.8746 35.5291 13.9103 35.4688 13.947C35.4688 13.9728 35.4688 13.9986 35.4688 14.0251C35.5197 14.0384 35.5707 14.0517 35.6232 14.0654C36.2164 14.2299 36.6857 14.4265 37.0312 14.9626C37.2808 15.5314 37.35 16.0119 37.1436 16.6082C36.9271 17.1097 36.613 17.3456 36.1475 17.6091C35.4626 17.8181 34.8105 17.6585 34.1324 17.4892C34.0446 17.4682 33.9568 17.4472 33.8664 17.4256C33.4938 17.3365 33.1217 17.2453 32.7497 17.1542C32.4767 17.0876 32.2035 17.0223 31.9302 16.957C31.8049 16.9256 31.8049 16.9256 31.6769 16.8936C31.085 16.7525 30.6326 16.7124 30.0882 17.029C29.9836 17.089 29.9836 17.089 29.8768 17.1502C29.7662 17.2154 29.7662 17.2154 29.6533 17.282C29.5372 17.3489 29.5372 17.3489 29.4188 17.4173C29.1692 17.5616 28.9205 17.7073 28.6719 17.8533C28.413 18.0049 28.1541 18.1566 27.8952 18.3081C27.7322 18.4036 27.5694 18.4995 27.4068 18.5958C27.2955 18.6614 27.2955 18.6614 27.182 18.7282C27.1169 18.7667 27.0519 18.8053 26.9848 18.845C26.7962 18.9474 26.6069 19.0277 26.4062 19.1033C26.4232 19.1915 26.4232 19.1915 26.4404 19.2815C26.6249 20.3368 26.608 21.3324 26.4062 22.3845C26.4887 22.4153 26.4887 22.4153 26.5729 22.4467C26.8127 22.5474 27.0304 22.6667 27.2559 22.7965C27.345 22.8477 27.434 22.8988 27.5258 22.9516C27.5726 22.9786 27.6194 23.0056 27.6676 23.0334C27.8139 23.1178 27.9605 23.2016 28.1072 23.2852C28.5644 23.5464 29.0192 23.8102 29.4687 24.0847C29.5417 24.1285 29.6146 24.1723 29.6898 24.2174C29.8244 24.2985 29.9581 24.381 30.0908 24.4652C30.1514 24.5013 30.2119 24.5375 30.2744 24.5748C30.3255 24.6065 30.3766 24.6382 30.4293 24.6709C30.9839 24.8335 31.6456 24.5863 32.1896 24.4545C32.3547 24.4156 32.5197 24.3767 32.6848 24.3378C32.9418 24.2768 33.1988 24.2154 33.4556 24.1536C33.7057 24.0937 33.9559 24.0348 34.2062 23.976C34.282 23.9575 34.3578 23.9389 34.4359 23.9198C35.1752 23.7475 35.7925 23.6871 36.4691 24.0657C36.9089 24.3623 37.1374 24.7661 37.2656 25.2751C37.3275 25.8427 37.1745 26.3712 36.8262 26.823C36.4733 27.2023 35.9779 27.3969 35.4688 27.4626C35.7278 27.6839 35.9902 27.8537 36.2867 28.017C36.9183 28.3676 37.342 28.7074 37.5781 29.4158C37.6306 29.9963 37.6274 30.5013 37.2656 30.9783C36.8669 31.4214 36.415 31.6463 35.8252 31.7107C35.1913 31.644 34.672 31.3712 34.1357 31.0417C34.0756 31.0055 34.0154 30.9693 33.9534 30.932C33.8071 30.8439 33.6613 30.7549 33.5156 30.6658C33.5344 30.7235 33.5531 30.7812 33.5724 30.8406C33.7742 31.5313 33.7874 32.0679 33.4668 32.7214C33.129 33.1037 32.7393 33.4541 32.2131 33.4941C31.5726 33.5039 31.2209 33.4384 30.6885 33.073C30.2053 32.5898 30.0458 31.9252 29.8523 31.2868C29.825 31.1981 29.7977 31.1093 29.7696 31.0179C29.7123 30.8315 29.6553 30.6449 29.5986 30.4583C29.5115 30.172 29.4235 29.8859 29.3353 29.5999C29.2797 29.4184 29.2242 29.2369 29.1687 29.0554C29.1423 28.9697 29.116 28.884 29.0888 28.7957C29.0648 28.7164 29.0408 28.6371 29.016 28.5554C28.9948 28.4856 28.9735 28.4159 28.9516 28.344C28.9062 28.1658 28.9062 28.1658 28.9062 27.9314C28.8504 27.9103 28.7946 27.8892 28.7371 27.8675C28.5134 27.7742 28.3082 27.6667 28.0969 27.5481C28.0168 27.5032 27.9367 27.4583 27.8542 27.4121C27.7695 27.3643 27.6849 27.3166 27.5977 27.2673C27.5106 27.2184 27.4235 27.1695 27.3338 27.119C26.721 26.7736 26.1131 26.4206 25.5081 26.0616C25.1861 25.8708 24.8598 25.6887 24.5312 25.5095C24.4932 25.5474 24.4551 25.5853 24.4159 25.6243C23.793 26.2132 23.0912 26.6365 22.286 26.9248C22.1704 26.9664 22.1704 26.9664 22.0525 27.0088C21.9939 27.0296 21.9353 27.0505 21.875 27.072C21.8458 27.7009 21.8237 28.3295 21.8102 28.959C21.8038 29.2514 21.795 29.5434 21.7807 29.8356C21.669 31.3627 21.669 31.3627 22.2999 32.6936C22.5106 32.9 22.7297 33.0876 22.963 33.268C23.2346 33.4896 23.4626 33.7502 23.6963 34.0105C23.785 34.1064 23.8739 34.2021 23.963 34.2977C24.0055 34.3435 24.0481 34.3892 24.0919 34.4364C24.2168 34.57 24.343 34.7022 24.4696 34.8342C24.5471 34.9161 24.6246 34.9979 24.7021 35.0798C24.7693 35.1499 24.8365 35.22 24.9057 35.2922C25.2704 35.7518 25.3618 36.1819 25.3439 36.7543C25.2816 37.2296 25.1143 37.6097 24.7476 37.925C24.188 38.3094 23.7211 38.3821 23.0469 38.322C22.6636 38.2149 22.4054 38.0057 22.1304 37.7242C22.0823 37.6751 22.0341 37.6261 21.9845 37.5756C21.9484 37.5383 21.9122 37.501 21.875 37.4626C21.8747 37.5177 21.8744 37.5728 21.874 37.6295C21.8714 37.8832 21.8659 38.1368 21.8604 38.3904C21.8597 38.5203 21.8597 38.5203 21.859 38.6528C21.8434 39.2408 21.7509 39.7102 21.4062 40.197C20.8754 40.6936 20.4483 40.7731 19.7281 40.765C19.28 40.7306 18.9984 40.6143 18.692 40.2852C18.3582 39.8628 18.1875 39.4945 18.1708 38.9504C18.1678 38.8635 18.1647 38.7767 18.1616 38.6872C18.1592 38.5973 18.1568 38.5074 18.1543 38.4148C18.1513 38.3234 18.1483 38.232 18.1451 38.1378C18.1378 37.9128 18.1311 37.6877 18.125 37.4626C18.0828 37.506 18.0407 37.5493 17.9972 37.5939C17.9415 37.6505 17.8858 37.7071 17.8284 37.7654C17.7733 37.8216 17.7182 37.8778 17.6615 37.9357C17.3116 38.2649 16.9652 38.3373 16.499 38.3611C16.0085 38.3457 15.6252 38.2333 15.2344 37.9314C14.8673 37.5045 14.6768 37.1151 14.6631 36.5496C14.6602 36.4719 14.6572 36.3943 14.6542 36.3143C14.7349 35.6893 15.1089 35.2758 15.5371 34.8406C15.6423 34.731 15.7475 34.6215 15.8527 34.5119C15.9059 34.457 15.9591 34.402 16.0139 34.3454C16.2583 34.0917 16.4983 33.8339 16.7383 33.5759C16.7787 33.5328 16.819 33.4896 16.8606 33.4451C16.9428 33.3572 17.0241 33.2685 17.1047 33.1791C17.2656 33.0095 17.2656 33.0095 17.4782 32.8164C17.9035 32.4175 18.1767 32.1123 18.2226 31.5066C18.2224 31.2986 18.2179 31.0942 18.2089 30.8867C18.2073 30.776 18.2061 30.6652 18.2052 30.5544C18.202 30.2661 18.1936 29.9781 18.184 29.6898C18.1751 29.3945 18.1713 29.099 18.167 28.8036C18.1578 28.2262 18.1432 27.6492 18.125 27.072C18.0458 27.0413 17.9666 27.0106 17.885 26.9789C17.7793 26.9374 17.6737 26.8959 17.5681 26.8544C17.516 26.8343 17.464 26.8142 17.4105 26.7935C16.6654 26.4993 16.0496 26.0571 15.4688 25.5095C15.4125 25.5419 15.3562 25.5744 15.2982 25.6078C14.8364 25.8727 14.3737 26.1357 13.9087 26.3948C13.7402 26.4887 13.5718 26.5826 13.4033 26.6765C13.3189 26.7236 13.2344 26.7706 13.1474 26.8191C12.6188 27.1148 12.0952 27.4167 11.5811 27.737C11.2659 27.9314 11.2659 27.9314 11.0938 27.9314C11.0809 27.9967 11.0809 27.9967 11.0678 28.0632C10.8379 29.1697 10.8379 29.1697 10.4688 29.4158C10.1623 29.4492 9.9916 29.4653 9.73633 29.2839C9.58604 29.0701 9.55167 28.9743 9.53125 28.7126C9.58207 28.4572 9.66039 28.2129 9.74121 27.9656C9.7613 27.8992 9.78139 27.8327 9.80209 27.7643C9.82259 27.7001 9.84308 27.6359 9.8642 27.5698C9.8827 27.5117 9.90119 27.4536 9.92025 27.3938C10.0974 27.0261 10.404 26.8473 10.7501 26.653C10.8374 26.6036 10.9248 26.5542 11.0147 26.5033C11.1094 26.4503 11.2041 26.3974 11.2988 26.3445C11.3966 26.2894 11.4943 26.2342 11.5919 26.179C11.7429 26.0936 11.8939 26.0082 12.0451 25.9231C12.3865 25.7305 12.7268 25.5359 13.0661 25.3395C13.1113 25.3134 13.1564 25.2873 13.203 25.2603C13.4168 25.1365 13.6306 25.0125 13.8443 24.8884C14.0729 24.7561 14.3019 24.6247 14.5312 24.4939C14.6101 24.4489 14.689 24.4039 14.7703 24.3575C14.8466 24.3148 14.9229 24.2721 15.0015 24.2281C15.0696 24.1898 15.1376 24.1516 15.2078 24.1121C15.3906 24.0251 15.3906 24.0251 15.6738 23.991C16.0138 24.1358 16.1992 24.3505 16.4496 24.6178C17.1204 25.2801 18.062 25.6934 18.9694 25.9102C19.199 26.0015 19.3 26.0952 19.4531 26.2908C19.4852 26.501 19.4983 26.6798 19.4973 26.8901C19.4987 26.9801 19.4987 26.9801 19.5001 27.0719C19.5026 27.2701 19.5029 27.4683 19.5029 27.6665C19.5037 27.8047 19.5045 27.9429 19.5055 28.0811C19.507 28.3708 19.5072 28.6605 19.5067 28.9503C19.5063 29.3206 19.5097 29.6907 19.5142 30.0609C19.5171 30.3465 19.5175 30.632 19.5172 30.9175C19.5174 31.0539 19.5185 31.1904 19.5205 31.3268C19.5362 32.5261 19.5362 32.5261 19.1882 32.928C19.0964 33.0098 19.0026 33.0894 18.9062 33.1658C18.8402 33.2391 18.7741 33.3124 18.7061 33.3879C18.3422 33.7845 17.9765 34.1792 17.6079 34.5714C17.5069 34.679 17.4061 34.7866 17.3054 34.8944C17.0822 35.1334 16.8583 35.3713 16.6293 35.6047C16.5589 35.6781 16.4885 35.7514 16.416 35.8269C16.355 35.889 16.294 35.9512 16.2311 36.0152C16.0576 36.2646 16.0316 36.4589 16.0156 36.7595C16.0872 36.9223 16.0872 36.9223 16.25 36.9939C16.4728 37.0335 16.4728 37.0335 16.7188 36.9939C16.9429 36.8295 16.9429 36.8295 17.1436 36.6033C17.1807 36.5642 17.2179 36.5252 17.2562 36.485C17.4691 36.2597 17.6736 36.0274 17.876 35.7927C18.4293 35.1525 18.4293 35.1525 18.833 35.0701C19.1567 35.1389 19.2539 35.2448 19.4531 35.5095C19.5092 35.7872 19.5039 36.0601 19.5001 36.3427C19.5007 36.423 19.5014 36.5034 19.502 36.5863C19.5038 36.8426 19.5031 37.0989 19.502 37.3552C19.5017 37.6121 19.5019 37.869 19.5036 38.1259C19.5045 38.2856 19.5043 38.4453 19.5028 38.605C19.5032 38.7134 19.5032 38.7134 19.5037 38.8239C19.5032 38.9192 19.5032 38.9192 19.5027 39.0164C19.5385 39.2232 19.5987 39.2917 19.7656 39.4158C20.0858 39.4574 20.0858 39.4574 20.3645 39.3191C20.4981 39.1426 20.4974 39.0439 20.4963 38.8239C20.4968 38.7156 20.4968 38.7156 20.4972 38.605C20.4961 38.4882 20.4961 38.4882 20.495 38.369C20.496 38.2042 20.497 38.0394 20.498 37.8746C20.4984 37.6147 20.498 37.3548 20.4969 37.0949C20.4962 36.8441 20.4979 36.5934 20.4999 36.3427C20.4983 36.2263 20.4983 36.2263 20.4967 36.1076C20.5007 35.7399 20.5039 35.5662 20.7314 35.2658C20.9375 35.1189 20.9375 35.1189 21.1572 35.0603C21.9091 35.2372 22.5121 36.1699 23.0168 36.721C23.2171 36.9512 23.2171 36.9512 23.5107 37.0183C23.7435 37.0102 23.7435 37.0102 23.9014 36.9109C24.0403 36.6576 23.9766 36.4877 23.9062 36.2126C23.7549 35.9943 23.5722 35.8132 23.3838 35.6267C23.2762 35.5163 23.1687 35.4058 23.0612 35.2953C23.0065 35.2398 22.9518 35.1844 22.8955 35.1272C22.6516 34.8781 22.4147 34.6226 22.1777 34.3669C22.0886 34.2712 21.9993 34.1755 21.9101 34.0798C21.8661 34.0326 21.8222 33.9854 21.7768 33.9368C21.6345 33.7842 21.4919 33.632 21.3492 33.4798C21.2559 33.38 21.1626 33.2802 21.0693 33.1804C21.0258 33.1341 20.9822 33.0877 20.9373 33.04C20.582 32.6592 20.5349 32.4626 20.533 31.9543C20.5325 31.8938 20.532 31.8333 20.5315 31.771C20.5299 31.5704 20.529 31.3699 20.5283 31.1693C20.5279 31.1009 20.5276 31.0325 20.5273 30.962C20.5257 30.5999 20.5245 30.2379 20.5238 29.8759C20.523 29.5016 20.5203 29.1273 20.5172 28.753C20.5151 28.4655 20.5145 28.178 20.5142 27.8905C20.5138 27.7525 20.5129 27.6145 20.5114 27.4765C20.5095 27.2835 20.5096 27.0905 20.5102 26.8975C20.5087 26.8119 20.5087 26.8119 20.5071 26.7245C20.5098 26.4597 20.5275 26.3163 20.6897 26.1026C20.9154 25.9372 21.1329 25.8751 21.4014 25.7976C22.3485 25.5017 23.0808 25.0584 23.7845 24.3654C24.0518 24.1193 24.1704 24.0255 24.537 24.0245C24.965 24.1033 25.3226 24.3585 25.6885 24.5818C25.8557 24.6816 26.0229 24.7814 26.1902 24.8812C26.2767 24.9331 26.3633 24.985 26.4525 25.0385C26.8052 25.2485 27.1607 25.4531 27.5168 25.6573C27.7741 25.8049 28.0306 25.954 28.287 26.1031C28.5646 26.2639 28.8433 26.42 29.1275 26.5688C29.182 26.5984 29.2365 26.6279 29.2926 26.6584C29.4296 26.7325 29.5679 26.8042 29.7064 26.8755C29.9324 27.0816 29.9769 27.1765 30.074 27.4571C30.1007 27.5341 30.1274 27.6112 30.1549 27.6906C30.281 28.0726 30.4 28.4564 30.5157 28.8417C30.5674 29.012 30.6191 29.1822 30.6708 29.3524C30.7509 29.6175 30.831 29.8825 30.9109 30.1476C30.9889 30.4057 31.0673 30.6638 31.1456 30.9218C31.1695 31.0012 31.1933 31.0807 31.2179 31.1625C31.2516 31.2733 31.2516 31.2733 31.2859 31.3863C31.3152 31.4834 31.3152 31.4834 31.3451 31.5824C31.406 31.7588 31.4621 31.9144 31.5625 32.072C31.8299 32.1502 31.8299 32.1502 32.1094 32.1501C32.3452 32.0228 32.3452 32.0228 32.4055 31.8573C32.4279 31.6166 32.3666 31.4413 32.2928 31.2114C32.2643 31.1201 32.2359 31.0287 32.2066 30.9346C32.1454 30.7436 32.0842 30.5525 32.0229 30.3615C31.8716 29.8755 31.7425 29.4572 31.7969 28.947C31.9189 28.7517 31.9189 28.7517 32.1094 28.6345C32.5419 28.5947 32.7875 28.6719 33.158 28.8915C33.2037 28.9181 33.2494 28.9447 33.2966 28.9722C33.4419 29.0571 33.5862 29.1436 33.7305 29.2302C33.826 29.2866 33.9216 29.3428 34.0173 29.399C34.0643 29.4265 34.1112 29.4541 34.1595 29.4825C34.2293 29.5235 34.2293 29.5235 34.3005 29.5653C34.8301 29.8763 34.8301 29.8763 35.0911 30.0328C35.2037 30.0981 35.2037 30.0981 35.3186 30.1647C35.3838 30.2032 35.449 30.2417 35.5161 30.2814C35.7468 30.3701 35.8628 30.3587 36.0938 30.2751C36.275 30.0504 36.275 30.0504 36.2492 29.7719C36.1968 29.4837 36.1968 29.4837 35.9758 29.3257C35.8901 29.2797 35.8043 29.2337 35.7159 29.1863C35.6695 29.1606 35.6231 29.1349 35.5753 29.1085C35.4268 29.0268 35.277 28.9478 35.127 28.8689C34.9806 28.7897 34.8345 28.71 34.6884 28.6303C34.5925 28.5779 34.4964 28.5258 34.4003 28.4738C33.309 27.881 33.309 27.881 32.9688 27.5408C32.9148 26.9836 32.9148 26.9836 33.0938 26.7585C33.3298 26.5631 33.5173 26.5224 33.8162 26.4586C33.8672 26.4473 33.9183 26.436 33.9708 26.4243C34.133 26.3885 34.2955 26.3542 34.458 26.3201C34.6208 26.2852 34.7834 26.2499 34.946 26.2142C35.0933 26.1819 35.2407 26.1506 35.3882 26.1194C35.6364 26.067 35.6364 26.067 35.8594 25.9001C35.932 25.6879 35.9472 25.553 35.8984 25.3337C35.7517 25.1626 35.6327 25.1443 35.4133 25.1184C35.0136 25.1195 34.6262 25.238 34.2404 25.3334C34.1452 25.3561 34.05 25.3787 33.9519 25.4021C33.6998 25.4622 33.4479 25.523 33.1961 25.5843C32.8413 25.6706 32.4864 25.756 32.1313 25.8407C31.9425 25.8858 31.7539 25.9314 31.5655 25.9777C31.4797 25.9983 31.3939 26.0188 31.3055 26.04C31.2305 26.0583 31.1555 26.0766 31.0782 26.0954C30.7034 26.1624 30.4036 26.1753 30.069 25.985C30.0097 25.9519 29.9504 25.9187 29.8893 25.8846C29.8259 25.8478 29.7625 25.8111 29.6973 25.7732C29.5957 25.7158 29.5957 25.7158 29.4921 25.6572C29.2701 25.531 29.049 25.4033 28.8281 25.2751C28.7528 25.2317 28.6775 25.1882 28.5999 25.1435C28.1293 24.8718 27.6605 24.5973 27.1923 24.3216C26.949 24.1789 26.7047 24.0378 26.4603 23.897C26.3039 23.8062 26.1476 23.7155 25.9912 23.6248C25.9185 23.5832 25.8457 23.5416 25.7708 23.4988C25.7036 23.4596 25.6365 23.4204 25.5673 23.38C25.5085 23.3461 25.4496 23.3121 25.389 23.2771C25.2169 23.1532 25.113 23.0322 25 22.8533C24.9887 22.6793 24.9887 22.6793 25.0146 22.4919C25.0237 22.4229 25.0328 22.3538 25.0421 22.2826C25.0756 22.0867 25.117 21.8946 25.1611 21.7009C25.3266 20.8986 25.2502 20.1381 25.0513 19.3499C24.9982 19.0948 24.9694 18.8936 25 18.6345C25.205 18.334 25.4055 18.166 25.7236 17.994C25.8039 17.9499 25.8842 17.9058 25.9669 17.8604C26.0522 17.8145 26.1376 17.7687 26.2256 17.7214C26.4038 17.6238 26.5819 17.526 26.7599 17.4282C26.8468 17.3806 26.9337 17.3331 27.0233 17.2841C27.3354 17.1116 27.6429 16.9323 27.9492 16.7498C28.4591 16.4469 28.9723 16.1503 29.4873 15.8562C29.5591 15.8151 29.631 15.7741 29.705 15.7318C30.5685 15.2393 31.1626 15.413 32.1176 15.6468C32.2977 15.6897 32.4778 15.7325 32.6579 15.7753C32.9388 15.8427 33.2196 15.9104 33.5003 15.9785C33.7733 16.0446 34.0465 16.1095 34.3198 16.1742C34.4034 16.1949 34.4869 16.2155 34.5731 16.2368C35.0076 16.339 35.3443 16.3943 35.7812 16.2908C35.9156 15.9833 35.9156 15.9833 35.8957 15.6597C35.7231 15.4332 35.5424 15.4183 35.2686 15.3533C35.2174 15.3406 35.1663 15.3279 35.1136 15.3148C34.826 15.2443 34.5369 15.1811 34.2474 15.1189C34.1881 15.1058 34.1287 15.0927 34.0676 15.0792C33.9525 15.0541 33.8372 15.03 33.7216 15.0072C33.3831 14.9338 33.1766 14.8544 32.9688 14.572C32.894 14.1859 32.894 14.1859 32.9688 13.947C33.4048 13.4843 34.0683 13.1921 34.6143 12.8826C34.7037 12.8314 34.7932 12.7802 34.8854 12.7275C35.016 12.6529 35.016 12.6529 35.1492 12.5768C35.2733 12.5058 35.2733 12.5058 35.3999 12.4334C35.5345 12.3574 35.6699 12.2827 35.8066 12.2105C36.1214 12.0471 36.1214 12.0471 36.2646 11.7205C36.2721 11.4474 36.2721 11.4474 36.1279 11.2517C35.9451 11.1144 35.9451 11.1144 35.7288 11.1449C35.4014 11.2302 35.1539 11.3774 34.8682 11.5544C34.7509 11.6249 34.6336 11.6952 34.5163 11.7656C34.3249 11.8817 34.1338 11.9981 33.9429 12.1149C33.7458 12.2351 33.5477 12.3538 33.3496 12.4724C33.2581 12.5293 33.2581 12.5293 33.1648 12.5873C32.8001 12.8045 32.5466 12.9095 32.1094 12.8533C31.9189 12.7361 31.9189 12.7361 31.7969 12.5408C31.722 11.8451 31.9987 11.2121 32.2134 10.56C32.2421 10.4689 32.2708 10.3778 32.3004 10.284C32.3274 10.2016 32.3544 10.1193 32.3822 10.0345C32.4278 9.77201 32.3865 9.64913 32.2656 9.41577C32.0035 9.35598 32.0035 9.35598 31.7188 9.33764C31.4989 9.49907 31.4318 9.67609 31.3522 9.93151C31.3288 10.0057 31.3053 10.0799 31.2812 10.1564C31.2564 10.2374 31.2316 10.3185 31.2061 10.4021C31.1796 10.4864 31.1531 10.5707 31.1259 10.6576C30.9644 11.1753 30.8083 11.6946 30.6531 12.2142C30.6357 12.2722 30.6183 12.3301 30.6004 12.3899C30.5145 12.6767 30.4291 12.9637 30.3448 13.2511C30.3132 13.3573 30.2816 13.4636 30.2499 13.5698C30.2224 13.6634 30.1949 13.7569 30.1665 13.8533C30.0091 14.2984 29.8585 14.5189 29.4403 14.7438C29.3598 14.7879 29.2792 14.832 29.1963 14.8774C29.1102 14.9232 29.0242 14.9691 28.9355 15.0164C28.7566 15.1141 28.5776 15.212 28.3987 15.3099C28.3113 15.3575 28.2239 15.4051 28.1339 15.4541C27.8231 15.6247 27.5168 15.8021 27.2119 15.9832C27.1612 16.013 27.1105 16.0429 27.0583 16.0737C26.7433 16.2597 26.4306 16.4492 26.1185 16.6399C26.0415 16.6864 25.9646 16.7329 25.8854 16.7809C25.7349 16.8719 25.5848 16.9637 25.4353 17.0563C25.0505 17.2882 24.7506 17.4526 24.2969 17.4626C24.0251 17.3539 23.8599 17.1825 23.6621 16.9744C22.9185 16.2115 21.8972 15.804 20.8932 15.5089C20.7031 15.4314 20.7031 15.4314 20.5469 15.197C20.512 14.8351 20.5216 14.4715 20.5225 14.1082C20.5212 14.0075 20.5199 13.9068 20.5186 13.8031C20.5186 13.7065 20.5185 13.6099 20.5185 13.5103C20.5183 13.4218 20.518 13.3333 20.5178 13.2421C20.55 12.9843 20.5972 12.8778 20.7812 12.697C21.0917 12.6108 21.257 12.5864 21.5527 12.7214C21.7188 12.8533 21.7188 12.8533 21.7969 13.0095C21.8086 13.1168 21.8163 13.2246 21.8216 13.3324C21.8265 13.4268 21.8265 13.4268 21.8315 13.5231C21.8346 13.5889 21.8377 13.6547 21.8408 13.7224C21.8459 13.822 21.8459 13.822 21.851 13.9235C21.8593 14.0876 21.8672 14.2517 21.875 14.4158C21.9869 14.457 21.9869 14.457 22.1011 14.4991C22.9337 14.8138 23.6949 15.1773 24.3256 15.8245C24.4541 15.9181 24.4541 15.9181 24.6304 15.8799C24.8684 15.8153 25.0477 15.7212 25.2603 15.5965C25.3412 15.5494 25.4221 15.5023 25.5054 15.4538C25.5916 15.4029 25.6778 15.352 25.7666 15.2996C25.9023 15.2204 26.0379 15.1413 26.1736 15.0622C26.4077 14.9254 26.6413 14.7878 26.875 14.6501C26.967 14.596 27.059 14.5418 27.151 14.4876C27.1958 14.4613 27.2406 14.4349 27.2867 14.4077C27.4177 14.3306 27.5488 14.2537 27.68 14.1767C27.8444 14.0801 28.0086 13.9832 28.1726 13.8859C28.2463 13.8425 28.32 13.7992 28.396 13.7545C28.4608 13.7161 28.5256 13.6777 28.5924 13.6382C28.75 13.5564 28.75 13.5564 28.9062 13.5564C28.9268 13.4586 28.9473 13.3608 28.9684 13.2601C29.1236 12.563 29.3426 11.8822 29.5492 11.199C29.6023 11.0226 29.6549 10.846 29.7069 10.6692C29.7826 10.412 29.86 10.1554 29.9377 9.89886C29.9605 9.82056 29.9832 9.74225 30.0066 9.66158C30.2194 8.9715 30.5307 8.44386 31.1719 8.08764C31.664 7.92361 32.2908 7.91494 32.7686 8.13159Z" fill="#3B3B3B"/>
<path d="M20.8984 0.861131C21.3491 1.13286 21.6279 1.58422 21.7969 2.07207C21.8218 2.2957 21.8218 2.2957 21.8292 2.53746C21.8322 2.62432 21.8353 2.71118 21.8384 2.80068C21.842 2.9355 21.842 2.9355 21.8457 3.07304C21.8487 3.16444 21.8517 3.25583 21.8549 3.34999C21.8622 3.57505 21.8689 3.8001 21.875 4.02519C21.9383 3.96024 21.9383 3.96024 22.0028 3.89397C22.0585 3.83737 22.1142 3.78077 22.1716 3.72246C22.2267 3.66626 22.2817 3.61007 22.3385 3.55217C22.6883 3.22296 23.0348 3.15057 23.501 3.12676C23.9915 3.1421 24.3748 3.2545 24.7656 3.55644C25.1327 3.98331 25.3231 4.37278 25.3369 4.93828C25.3398 5.01593 25.3427 5.09357 25.3458 5.17357C25.2651 5.79854 24.891 6.21206 24.4629 6.64726C24.3577 6.7568 24.2525 6.86636 24.1473 6.97594C24.0941 7.03089 24.0409 7.08584 23.9861 7.14245C23.6954 7.44422 23.4094 7.75053 23.1265 8.05969C22.9178 8.28698 22.7084 8.50541 22.4777 8.71056C22.0587 9.09584 21.8387 9.3939 21.8043 9.96687C21.8026 10.092 21.8038 10.2172 21.8082 10.3423C21.8236 10.7863 21.8236 10.7863 21.6522 11.0155C21.4553 11.1552 21.3349 11.2009 21.0937 11.2127C20.7959 11.1296 20.7226 11.0857 20.5469 10.8221C20.5045 10.5191 20.5071 10.2145 20.5029 9.90898C20.499 9.82585 20.4952 9.74271 20.4912 9.65706C20.4855 9.22022 20.5052 8.93799 20.7986 8.6013C20.8955 8.50665 20.9938 8.41342 21.0937 8.32207C21.1598 8.24875 21.2259 8.17544 21.2939 8.0999C21.6578 7.70335 22.0235 7.30864 22.3921 6.91641C22.493 6.80888 22.5939 6.70121 22.6946 6.59342C22.9178 6.35446 23.1417 6.11658 23.3707 5.8831C23.4411 5.80979 23.5114 5.73647 23.584 5.66094C23.645 5.5988 23.706 5.53666 23.7689 5.47264C23.9423 5.22329 23.9684 5.02898 23.9844 4.72832C23.9128 4.56556 23.9128 4.56556 23.75 4.49394C23.5272 4.45437 23.5272 4.45437 23.2812 4.49394C23.057 4.65833 23.057 4.65833 22.8564 4.88457C22.8007 4.94312 22.8007 4.94312 22.7438 5.00286C22.5309 5.22814 22.3263 5.46041 22.124 5.69512C21.5707 6.33538 21.5707 6.33538 21.167 6.41777C20.8433 6.34891 20.7461 6.24301 20.5469 5.97832C20.4908 5.70059 20.4961 5.4277 20.4999 5.14519C20.4992 5.0648 20.4986 4.9844 20.498 4.90157C20.4962 4.64522 20.4969 4.38897 20.498 4.13262C20.4983 3.87572 20.4981 3.61887 20.4964 3.36198C20.4955 3.20226 20.4957 3.04253 20.4972 2.88281C20.4969 2.81058 20.4966 2.73834 20.4963 2.66392C20.4966 2.60039 20.4969 2.53686 20.4973 2.4714C20.4615 2.26467 20.4013 2.19609 20.2344 2.07207C19.9142 2.03043 19.9142 2.03043 19.6355 2.16874C19.5019 2.34526 19.5026 2.4439 19.5037 2.66392C19.5032 2.77227 19.5032 2.77227 19.5028 2.88281C19.5039 2.99964 19.5039 2.99964 19.505 3.11882C19.504 3.28362 19.503 3.44841 19.5019 3.61321C19.5016 3.87312 19.5019 4.13302 19.5031 4.39293C19.5038 4.64372 19.5021 4.89441 19.5001 5.14519C19.5012 5.22275 19.5022 5.30032 19.5033 5.38024C19.4993 5.74792 19.4961 5.92159 19.2686 6.22204C19.0625 6.36894 19.0625 6.36894 18.8428 6.42754C18.0909 6.25064 17.4879 5.31791 16.9832 4.76683C16.7829 4.53665 16.7829 4.53665 16.4893 4.46953C16.2565 4.47759 16.2565 4.47759 16.0986 4.57695C15.9597 4.83029 16.0234 5.00015 16.0937 5.27519C16.2451 5.49351 16.4278 5.6746 16.6162 5.86113C16.7238 5.97157 16.8313 6.08205 16.9388 6.19255C16.9935 6.24802 17.0482 6.30348 17.1045 6.36063C17.3484 6.60977 17.5853 6.86521 17.8223 7.1209C17.9114 7.21665 18.0007 7.31237 18.0899 7.40807C18.1339 7.45526 18.1778 7.50246 18.2231 7.55108C18.3655 7.70361 18.5081 7.85584 18.6508 8.00804C18.7441 8.10783 18.8374 8.20762 18.9307 8.30742C18.9742 8.35376 19.0178 8.4001 19.0627 8.44784C19.418 8.82869 19.4651 9.02522 19.4669 9.53358C19.4675 9.59406 19.468 9.65454 19.4685 9.71685C19.47 9.91741 19.471 10.118 19.4717 10.3185C19.4721 10.3869 19.4724 10.4554 19.4727 10.5259C19.4743 10.8879 19.4754 11.2499 19.4762 11.612C19.477 11.9863 19.4797 12.3605 19.4828 12.7348C19.4849 13.0223 19.4855 13.3098 19.4858 13.5974C19.4862 13.7354 19.4871 13.8733 19.4885 14.0113C19.4904 14.2044 19.4904 14.3973 19.4898 14.5903C19.4913 14.676 19.4913 14.676 19.4929 14.7633C19.4901 15.0282 19.4725 15.1715 19.3103 15.3852C19.0846 15.5506 18.8671 15.6128 18.5986 15.6902C17.6515 15.9861 16.9191 16.4295 16.2155 17.1224C15.9482 17.3685 15.8296 17.4624 15.4629 17.4633C15.035 17.3845 14.6774 17.1293 14.3115 16.9061C14.1443 16.8062 13.9771 16.7064 13.8098 16.6067C13.7232 16.5547 13.6367 16.5028 13.5475 16.4493C13.1948 16.2394 12.8392 16.0347 12.4832 15.8306C12.2259 15.6829 11.9694 15.5339 11.7129 15.3848C11.4354 15.2239 11.1567 15.0679 10.8725 14.9191C10.818 14.8895 10.7635 14.8599 10.7074 14.8294C10.5704 14.7553 10.4321 14.6837 10.2936 14.6124C10.0676 14.4062 10.0231 14.3114 9.92599 14.0307C9.89929 13.9537 9.87259 13.8767 9.84508 13.7973C9.71902 13.4152 9.6 13.0314 9.48425 12.6461C9.43257 12.4759 9.38089 12.3056 9.32922 12.1354C9.24908 11.8704 9.16904 11.6053 9.08904 11.3402C9.01105 11.0821 8.93272 10.8241 8.85436 10.566C8.83052 10.4866 8.80667 10.4072 8.7821 10.3253C8.75966 10.2515 8.73722 10.1776 8.7141 10.1016C8.69457 10.0368 8.67504 9.97213 8.65492 9.90545C8.594 9.72906 8.5379 9.57345 8.43749 9.41582C8.17012 9.33763 8.17012 9.33763 7.89062 9.33769C7.65479 9.46503 7.65479 9.46503 7.59446 9.63059C7.5721 9.87124 7.63335 10.0466 7.70721 10.2764C7.73566 10.3678 7.76411 10.4591 7.79342 10.5532C7.85458 10.7443 7.91582 10.9353 7.97714 11.1263C8.12838 11.6123 8.25753 12.0306 8.20312 12.5408C8.08105 12.7361 8.08105 12.7361 7.89062 12.8533C7.45814 12.8931 7.21253 12.816 6.84203 12.5964C6.77342 12.5564 6.77342 12.5564 6.70342 12.5157C6.55811 12.4307 6.41382 12.3442 6.26952 12.2576C6.17397 12.2012 6.07835 12.145 5.98266 12.0889C5.93574 12.0613 5.88882 12.0337 5.84048 12.0053C5.79394 11.978 5.7474 11.9507 5.69946 11.9225C5.16991 11.6115 5.16991 11.6115 4.9089 11.4551C4.79628 11.3898 4.79628 11.3898 4.68139 11.3232C4.61621 11.2847 4.55102 11.2462 4.48386 11.2065C4.25322 11.1178 4.13721 11.1291 3.90624 11.2127C3.72504 11.4374 3.72504 11.4374 3.75062 11.7158C3.80323 12.0043 3.80323 12.0043 4.0254 12.1633C4.11166 12.2099 4.19792 12.2564 4.2868 12.3043C4.33339 12.3302 4.37998 12.356 4.42798 12.3827C4.57704 12.4649 4.72736 12.5444 4.87792 12.6238C4.97644 12.6774 5.07486 12.7312 5.17318 12.7851C5.36455 12.8899 5.55627 12.9941 5.74825 13.0978C6.82152 13.6844 6.82152 13.6844 7.03124 13.9471C7.09219 14.4956 7.09219 14.4956 6.90601 14.7292C6.67013 14.9249 6.48278 14.9654 6.18377 15.0292C6.13275 15.0405 6.08172 15.0519 6.02915 15.0635C5.86698 15.0994 5.70453 15.1337 5.54199 15.1678C5.37922 15.2027 5.21655 15.2379 5.05398 15.2737C4.90674 15.306 4.75927 15.3372 4.61179 15.3685C4.3636 15.4209 4.3636 15.4209 4.14062 15.5877C4.06799 15.8 4.05284 15.9349 4.10156 16.1541C4.24828 16.3253 4.3673 16.3436 4.58665 16.3695C4.98638 16.3683 5.37381 16.2499 5.75958 16.1544C5.8548 16.1318 5.95002 16.1091 6.04813 16.0858C6.30024 16.0257 6.55213 15.9648 6.80393 15.9035C7.15865 15.8172 7.51361 15.7318 7.86871 15.6471C8.05744 15.602 8.24605 15.5564 8.4345 15.5102C8.56319 15.4793 8.56319 15.4793 8.69447 15.4478C8.7695 15.4295 8.84453 15.4112 8.92184 15.3924C9.29664 15.3254 9.59639 15.3126 9.93102 15.5029C9.99033 15.536 10.0496 15.5691 10.1107 15.6032C10.1741 15.64 10.2374 15.6768 10.3027 15.7146C10.3704 15.7529 10.4381 15.7912 10.5078 15.8307C10.7299 15.9568 10.951 16.0846 11.1719 16.2127C11.2472 16.2561 11.3225 16.2996 11.4001 16.3444C11.8707 16.616 12.3395 16.8905 12.8076 17.1662C13.051 17.3089 13.2953 17.45 13.5397 17.5909C13.6961 17.6816 13.8524 17.7723 14.0088 17.8631C14.0815 17.9047 14.1543 17.9462 14.2292 17.9891C14.2964 18.0283 14.3635 18.0675 14.4327 18.1078C14.4915 18.1418 14.5504 18.1757 14.611 18.2107C14.7831 18.3347 14.887 18.4557 15 18.6346C15.0113 18.8085 15.0113 18.8085 14.9853 18.9959C14.9763 19.065 14.9672 19.1341 14.9579 19.2052C14.9244 19.4011 14.883 19.5932 14.8389 19.7869C14.6734 20.5892 14.7498 21.3497 14.9487 22.138C15.0017 22.393 15.0306 22.5943 15 22.8533C14.795 23.1538 14.5945 23.3218 14.2764 23.4939C14.1961 23.538 14.1158 23.582 14.0331 23.6274C13.9477 23.6733 13.8624 23.7192 13.7744 23.7664C13.5962 23.8641 13.4181 23.9618 13.24 24.0597C13.1531 24.1072 13.0662 24.1548 12.9767 24.2038C12.6646 24.3762 12.3571 24.5555 12.0508 24.7381C11.5409 25.0409 11.0277 25.3375 10.5127 25.6316C10.4409 25.6727 10.369 25.7137 10.295 25.756C9.43147 26.2485 8.8374 26.0748 7.88238 25.841C7.70228 25.7981 7.52218 25.7553 7.34206 25.7125C7.06117 25.6451 6.78035 25.5775 6.49965 25.5093C6.2267 25.4432 5.9535 25.3784 5.68023 25.3136C5.59664 25.293 5.51305 25.2723 5.42693 25.251C4.9924 25.1488 4.65566 25.0936 4.21874 25.1971C4.0844 25.5045 4.0844 25.5045 4.1043 25.8282C4.27689 26.0546 4.45764 26.0695 4.73144 26.1346C4.80815 26.1536 4.80815 26.1536 4.88641 26.173C5.17401 26.2435 5.46306 26.3067 5.75256 26.3689C5.81192 26.382 5.87128 26.3951 5.93244 26.4086C6.04751 26.4338 6.16283 26.4578 6.27839 26.4806C6.61658 26.5539 6.82436 26.6328 7.03124 26.9158C7.09927 27.3444 7.09927 27.3444 7.03124 27.5408C6.64617 27.9278 6.16809 28.1677 5.69335 28.4295C5.61343 28.4744 5.5335 28.5193 5.45116 28.5656C5.11703 28.7534 4.78278 28.9398 4.44213 29.1155C3.97308 29.35 3.97308 29.35 3.71093 29.782C3.7326 30.0418 3.7326 30.0418 3.87206 30.2361C4.05665 30.3755 4.05665 30.3755 4.28233 30.3358C4.54237 30.2725 4.7251 30.1845 4.95422 30.0475C5.03307 30.0009 5.11193 29.9543 5.19317 29.9062C5.27444 29.8572 5.35571 29.8081 5.43945 29.7576C5.59997 29.6622 5.76049 29.5668 5.92101 29.4714C6.16924 29.3232 6.41724 29.1748 6.66465 29.0253C6.78901 28.9511 6.78901 28.9511 6.91589 28.8754C6.99055 28.8304 7.06521 28.7855 7.14214 28.7392C7.4276 28.5911 7.57745 28.5628 7.89062 28.6346C8.08105 28.7518 8.08105 28.7518 8.20312 28.9471C8.27804 29.6428 8.00126 30.2757 7.78655 30.9278C7.75785 31.0189 7.72915 31.11 7.69958 31.2038C7.67258 31.2862 7.64557 31.3685 7.61775 31.4534C7.57214 31.7158 7.61348 31.8387 7.73437 32.0721C7.99644 32.1319 7.99644 32.1319 8.28124 32.1502C8.61153 31.9256 8.68154 31.4876 8.80615 31.1294C8.90624 30.9002 8.90624 30.9002 9.14062 30.7439C9.41376 30.7015 9.67477 30.6912 9.91699 30.8318C10.0883 31.1341 10.0894 31.3949 10.0168 31.73C9.98505 31.8299 9.95173 31.9292 9.91699 32.0281C9.89904 32.0799 9.8811 32.1316 9.86261 32.1849C9.66603 32.7204 9.42254 33.0618 8.93554 33.3562C8.43171 33.5806 7.87684 33.5434 7.35839 33.3904C6.84518 33.0885 6.51048 32.8159 6.32812 32.2283C6.19393 31.6628 6.32625 31.2167 6.48437 30.6658C6.43671 30.6938 6.38906 30.7218 6.33996 30.7506C6.12313 30.8776 5.90581 31.0036 5.68847 31.1297C5.61349 31.1737 5.53852 31.2178 5.46127 31.2632C5.3885 31.3052 5.31574 31.3473 5.24078 31.3906C5.14075 31.4489 5.14075 31.4489 5.03869 31.5084C4.54393 31.7493 4.03002 31.7414 3.51562 31.5643C3.03664 31.3591 2.7137 31.0242 2.48748 30.5566C2.32184 30.0435 2.35494 29.494 2.56835 29.0008C2.81725 28.5643 3.16763 28.3373 3.59374 28.0877C3.72199 28.0123 3.72199 28.0123 3.85284 27.9354C4.01906 27.8387 4.18595 27.743 4.35363 27.6489C4.41224 27.6132 4.47085 27.5775 4.53124 27.5408C4.53124 27.515 4.53124 27.4893 4.53124 27.4627C4.45481 27.4428 4.45481 27.4428 4.37682 27.4224C3.78036 27.257 3.3209 27.0595 2.96874 26.5252C2.7296 26.0479 2.64973 25.5996 2.78564 25.0787C2.99521 24.4752 3.30686 24.1876 3.85253 23.8787C4.53693 23.6699 5.19193 23.829 5.87035 23.9959C5.95831 24.0167 6.04626 24.0375 6.13688 24.059C6.41568 24.125 6.69417 24.1922 6.97265 24.2596C7.25227 24.3268 7.53194 24.3938 7.81176 24.4602C7.98527 24.5014 8.15866 24.5431 8.33191 24.5854C9.12015 24.7796 9.12015 24.7796 9.86345 24.51C9.91495 24.4773 9.96646 24.4446 10.0195 24.4109C10.1361 24.3396 10.2528 24.2684 10.3696 24.1973C10.4341 24.1578 10.4985 24.1183 10.565 24.0775C10.9861 23.8235 11.4141 23.5811 11.8408 23.3367C12.515 22.9517 12.515 22.9517 13.176 22.5448C13.4375 22.3846 13.4375 22.3846 13.5937 22.3846C13.5768 22.2963 13.5768 22.2963 13.5596 22.2063C13.3751 21.151 13.392 20.1555 13.5937 19.1033C13.538 19.0824 13.4822 19.0615 13.4248 19.0399C13.1982 18.945 12.9935 18.8344 12.7811 18.7112C12.6994 18.6639 12.6178 18.6167 12.5337 18.568C12.4469 18.5175 12.36 18.4669 12.2705 18.4148C12.1798 18.3626 12.0891 18.3104 11.9984 18.2583C11.5551 18.0027 11.1161 17.7425 10.6833 17.4691C10.6074 17.4219 10.5315 17.3747 10.4533 17.3261C10.3111 17.2372 10.1699 17.1467 10.0299 17.0544C9.96526 17.0143 9.9006 16.9742 9.83398 16.9329C9.77899 16.8974 9.724 16.8619 9.66735 16.8253C9.0785 16.6446 8.38285 16.8921 7.80273 17.0333C7.63794 17.0722 7.47314 17.1111 7.30834 17.15C7.05217 17.2111 6.79607 17.2725 6.54006 17.3342C6.29055 17.3942 6.0408 17.453 5.79101 17.5118C5.71547 17.5304 5.63992 17.5489 5.56209 17.568C4.82361 17.7407 4.20685 17.8004 3.53088 17.4221C3.0918 17.126 2.85978 16.722 2.73437 16.2127C2.67525 15.6891 2.78538 15.2656 3.04687 14.8064C3.43255 14.3511 3.94539 14.114 4.53124 14.0252C4.27218 13.8039 4.00983 13.6341 3.71326 13.4709C3.08165 13.1202 2.65798 12.7804 2.42187 12.0721C2.36941 11.4916 2.37263 10.9866 2.73437 10.5096C3.13309 10.0664 3.58496 9.84149 4.1748 9.77715C4.80866 9.84387 5.32799 10.1166 5.86425 10.4461C5.92442 10.4823 5.9846 10.5185 6.04659 10.5558C6.19289 10.6439 6.33868 10.7329 6.48437 10.8221C6.46564 10.7644 6.4469 10.7067 6.42761 10.6472C6.22577 9.95656 6.21259 9.41994 6.5332 8.7664C6.87822 8.37599 7.26615 8.0356 7.8012 7.99095C8.41668 7.97724 8.8792 8.00105 9.33971 8.43643C9.65079 8.78345 9.80356 9.10412 9.93652 9.54765C9.95787 9.61517 9.97923 9.68268 10.0012 9.75224C10.0507 9.90968 10.0994 10.0673 10.1475 10.2252C10.2309 10.4983 10.3156 10.7709 10.4007 11.0435C10.5004 11.3634 10.5994 11.6835 10.6982 12.0037C10.7179 12.0671 10.7375 12.1305 10.7577 12.1959C10.8138 12.3777 10.8695 12.5596 10.925 12.7416C10.942 12.7967 10.9591 12.8518 10.9767 12.9086C11.0448 13.1335 11.0937 13.3199 11.0937 13.5564C11.1496 13.5775 11.2054 13.5986 11.2629 13.6204C11.4866 13.7136 11.6918 13.8212 11.9031 13.9397C11.9832 13.9846 12.0633 14.0295 12.1458 14.0757C12.2728 14.1474 12.2728 14.1474 12.4023 14.2205C12.4894 14.2694 12.5765 14.3184 12.6662 14.3688C13.279 14.7143 13.8869 15.0672 14.4919 15.4263C14.8138 15.617 15.1402 15.7991 15.4687 15.9783C15.5068 15.9405 15.5449 15.9026 15.5841 15.8636C16.207 15.2746 16.9088 14.8513 17.714 14.563C17.8296 14.5214 17.8296 14.5214 17.9475 14.4791C18.0061 14.4582 18.0646 14.4373 18.125 14.4158C18.1542 13.7869 18.1763 13.1583 18.1898 12.5289C18.1962 12.2364 18.205 11.9444 18.2193 11.6522C18.331 10.1251 18.331 10.1251 17.7001 8.79429C17.4894 8.58786 17.2703 8.40026 17.037 8.21983C16.7654 7.99828 16.5374 7.73765 16.3037 7.47734C16.215 7.38147 16.1261 7.28573 16.037 7.19017C15.9732 7.12149 15.9732 7.12149 15.9081 7.05143C15.7832 6.91789 15.657 6.78566 15.5304 6.65367C15.4529 6.57179 15.3754 6.4899 15.2978 6.40801C15.2307 6.33791 15.1635 6.26782 15.0943 6.1956C14.7296 5.73603 14.6381 5.30596 14.6561 4.73351C14.7184 4.25827 14.8857 3.87818 15.2524 3.56285C15.812 3.17848 16.2789 3.10577 16.9531 3.16582C17.3364 3.27292 17.5946 3.48211 17.8696 3.76366C17.9177 3.8127 17.9659 3.86173 18.0155 3.91226C18.0516 3.94953 18.0878 3.9868 18.125 4.02519C18.1253 3.97012 18.1256 3.91504 18.126 3.8583C18.1286 3.60462 18.1341 3.35109 18.1396 3.09746C18.1403 2.96755 18.1403 2.96755 18.141 2.83501C18.1566 2.24705 18.2491 1.77768 18.5937 1.29082C19.2142 0.710435 20.0894 0.50453 20.8984 0.861131Z" fill="#3B3B3B"/>
<path d="M22.4219 18.1657C23.1529 18.8297 23.4615 19.7716 23.54 20.7292C23.5038 21.7294 23.1342 22.6559 22.4072 23.3513C21.6117 23.9995 20.7467 24.2967 19.7266 24.2497C18.7884 24.152 17.9741 23.765 17.3242 23.0729C16.7378 22.3299 16.3817 21.3836 16.4844 20.4313C16.6255 19.4578 16.9986 18.6206 17.7725 17.9899C19.2649 16.9501 21.0154 16.9999 22.4219 18.1657ZM18.1561 19.412C17.7796 19.9714 17.6912 20.4946 17.7704 21.1598C17.8976 21.7914 18.2806 22.3197 18.8135 22.6774C19.4055 23.0198 19.9549 23.0663 20.625 22.9313C21.3012 22.6962 21.7931 22.2404 22.1094 21.6032C22.3288 21.0731 22.3134 20.481 22.1258 19.9415C21.8248 19.3015 21.3676 18.8185 20.6967 18.5756C19.7159 18.3074 18.7987 18.6284 18.1561 19.412Z" fill="#3B3B3B"/>
</g>
<defs>
<clipPath id="clip0_468_590">
<rect width="40" height="40" fill="white" transform="translate(0 0.743896)"/>
</clipPath>
</defs>
</svg>
