<svg width="40" height="41" viewBox="0 0 40 41" fill="none" xmlns="http://www.w3.org/2000/svg">
<path d="M19.9218 8.61491C19.9943 8.61485 20.0668 8.6148 20.1414 8.61475C22.6814 8.61767 25.1448 8.99452 27.578 9.72819C27.6447 9.74809 27.7113 9.76799 27.78 9.7885C31.0451 10.7778 34.1239 12.5193 36.6776 14.7794C36.8037 14.8906 36.9313 14.9999 37.0589 15.1094C37.1441 15.184 37.2293 15.2588 37.3143 15.3337C37.3895 15.3993 37.4646 15.465 37.542 15.5326C37.8249 15.8434 37.9492 16.1377 38.0028 16.5592C37.9464 17.0185 37.7906 17.3377 37.4511 17.653C36.9887 17.867 36.5971 17.9127 36.1083 17.7604C35.7591 17.5573 35.4782 17.2691 35.1874 16.9922C33.8935 15.7702 32.3502 14.7768 30.7811 13.9469C30.731 13.9204 30.681 13.8938 30.6293 13.8665C25.3012 11.0679 19.0497 10.5197 13.2991 12.2544C10.184 13.2279 7.44584 14.7676 4.96719 16.8882C4.77058 17.0563 4.57332 17.2234 4.37488 17.3893C4.30882 17.445 4.24276 17.5007 4.17469 17.5581C3.77674 17.8483 3.47929 17.8793 3.00251 17.8163C2.66364 17.7428 2.44486 17.6081 2.24598 17.3222C2.0518 16.9743 1.9799 16.6933 2.03114 16.2907C2.25336 15.5268 2.93101 15.0724 3.52863 14.5933C3.6701 14.4797 3.81041 14.3647 3.94916 14.2478C8.36687 10.534 14.1893 8.61867 19.9218 8.61491Z" fill="#3B3B3B"/>
<path d="M31.0938 19.9627C31.1397 20.0007 31.1857 20.0387 31.233 20.0778C32.9111 21.4747 32.9111 21.4747 32.9981 22.2576C32.95 22.7224 32.7928 23.042 32.4463 23.3562C32.0265 23.5543 31.6238 23.6204 31.1719 23.4881C30.8304 23.3394 30.612 23.0887 30.3595 22.8216C28.1406 20.6093 25.0104 19.3084 21.9532 18.8689C21.8991 18.8609 21.845 18.8528 21.7892 18.8445C21.215 18.7692 20.6369 18.7718 20.0586 18.7713C19.9757 18.7712 19.9757 18.7712 19.891 18.7711C18.9477 18.7725 18.0347 18.833 17.1094 19.0252C17.0447 19.0386 16.98 19.052 16.9133 19.0658C14.1451 19.6603 11.6046 20.9639 9.56249 22.9297C9.14421 23.329 8.79398 23.5553 8.20316 23.5564C7.76822 23.4827 7.54459 23.3504 7.26566 23.0095C7.04497 22.6595 6.98792 22.4059 7.03129 21.9939C7.35773 21.0809 8.23818 20.4608 8.98441 19.8845C9.02666 19.8515 9.06891 19.8185 9.11244 19.7845C11.4897 17.9375 14.3056 16.7877 17.2657 16.2908C17.3233 16.2806 17.381 16.2705 17.4404 16.26C22.1563 15.4635 27.4286 16.9252 31.0938 19.9627Z" fill="#3B3B3B"/>
<path d="M26.807 25.9976C26.9131 26.0851 27.0188 26.1731 27.1241 26.2616C27.1728 26.3017 27.2216 26.3419 27.2718 26.3832C27.6781 26.7363 27.9309 27.1196 28.0079 27.658C27.9438 28.1066 27.785 28.4341 27.4561 28.7469C27.187 28.9194 26.9692 28.9624 26.6553 28.9715C26.5579 28.9759 26.5579 28.9759 26.4585 28.9804C26.041 28.9137 25.7454 28.6113 25.4386 28.3373C23.7232 26.8095 21.6182 26.1605 19.3375 26.2768C17.5843 26.4021 16.0174 27.1162 14.6875 28.244C14.5447 28.36 14.4015 28.4756 14.2579 28.5907C14.1942 28.6421 14.1306 28.6936 14.065 28.7466C13.7227 29.0106 13.3877 28.9825 12.9688 28.9471C12.5273 28.7918 12.3051 28.5455 12.0899 28.1366C11.9631 27.6928 12.0006 27.3276 12.2214 26.9284C13.6405 24.9714 16.3506 24.0798 18.61 23.6669C21.5903 23.3416 24.465 24.1327 26.807 25.9976Z" fill="#3B3B3B"/>
<path d="M21.0936 30.119C21.5998 30.4791 21.9876 30.8986 22.1093 31.5253C22.1653 32.2793 22.1049 32.8282 21.621 33.4198C21.2387 33.8312 20.8215 34.0772 20.255 34.1193C19.4727 34.1314 18.9972 34.0083 18.4188 33.4708C17.95 32.9646 17.861 32.4422 17.8691 31.7728C17.9198 31.1864 18.1525 30.7059 18.5909 30.3122C19.3031 29.7968 20.316 29.6605 21.0936 30.119Z" fill="#3B3B3B"/>
</svg>
